<svg xmlns="http://www.w3.org/2000/svg" viewBox="0 0 433.4 8.65"><defs><style>.cls-1{fill:#d2af66;stroke:#fafafa;stroke-miterlimit:10;}</style></defs><title>Asset 40</title><g id="Layer_2" data-name="Layer 2"><g id="Layer_1-2" data-name="Layer 1"><path class="cls-1" d="M215.5,4.27c.28-.26.55-.54.82-.8v.12l.19-.13c.39-.37.77-.75,1.17-1.11a7.51,7.51,0,0,1,1.25-.93l.33-.18a.58.58,0,0,0-.13-.11c-.1-.06-.2-.13-.3-.18a4.33,4.33,0,0,0-2-.43,1.93,1.93,0,0,0-.48,0,5.15,5.15,0,0,0-2.83,1.28c-.88.8-1.75,1.6-2.61,2.42-.68.64-1.34,1.3-2,1.94a6.63,6.63,0,0,1-1.67,1.2l0,.06.25.18a4.07,4.07,0,0,0,1.95.53,5,5,0,0,0,3.33-1.28C213.66,6,214.58,5.14,215.5,4.27Z"/><path class="cls-1" d="M189.46,3.35a11.51,11.51,0,0,1,2.64-2.11s0-.05-.06-.06l-.2-.14a4.2,4.2,0,0,0-2.1-.53,5,5,0,0,0-3.07,1.21c-1.34,1.13-2.59,2.37-3.85,3.6a11.11,11.11,0,0,1-2.62,2.09.25.25,0,0,0,.05.07l.13.09a4,4,0,0,0,2.35.57,5.06,5.06,0,0,0,3.08-1.34Q187.65,5.09,189.46,3.35Z"/><path class="cls-1" d="M184.06,3.36a15.94,15.94,0,0,1,1.73-1.55c.29-.2.6-.39.91-.59a1.31,1.31,0,0,0-.24-.17,4.18,4.18,0,0,0-2.12-.54,5.06,5.06,0,0,0-3.05,1.19c-1.34,1.13-2.58,2.36-3.83,3.58a11.22,11.22,0,0,1-2.68,2.14,2.21,2.21,0,0,0,.23.17,4,4,0,0,0,2.27.55,5.08,5.08,0,0,0,3-1.23C181.6,5.78,182.83,4.57,184.06,3.36Z"/><path class="cls-1" d="M173.27,3.35a11.77,11.77,0,0,1,2.66-2.12l-.22-.15a4,4,0,0,0-2.52-.54,5.07,5.07,0,0,0-2.82,1.27c-1,.92-2,1.86-3,2.79-.62.58-1.22,1.18-1.84,1.75a6.19,6.19,0,0,1-1.47,1s0,0-.05.06l.18.13a4,4,0,0,0,2.35.57,5.06,5.06,0,0,0,3.06-1.32C170.84,5.67,172.06,4.52,173.27,3.35Z"/><path class="cls-1" d="M178.7,3.32a11.07,11.07,0,0,1,2.62-2.08c-.09-.07-.17-.14-.25-.19a4.14,4.14,0,0,0-2.8-.47A5.73,5.73,0,0,0,175.58,2c-1.32,1.2-2.61,2.44-3.89,3.69a9.19,9.19,0,0,1-2.26,1.75v0l0,0,.2.14a4.13,4.13,0,0,0,1.94.54,5.07,5.07,0,0,0,3.32-1.25C176.22,5.76,177.47,4.54,178.7,3.32Z"/><path class="cls-1" d="M194.87,3.37a11.17,11.17,0,0,1,2.67-2.14l-.23-.16a4.11,4.11,0,0,0-2.49-.54A5.12,5.12,0,0,0,192,1.79c-1,.91-2,1.84-3,2.77-.59.55-1.15,1.12-1.74,1.66a6.4,6.4,0,0,1-1.62,1.16.1.1,0,0,0,0,0l.08.08.17.11a4.19,4.19,0,0,0,1.92.53,5,5,0,0,0,3.32-1.25C192.42,5.78,193.65,4.58,194.87,3.37Z"/><path class="cls-1" d="M210.2,4.21c.57-.54,1.11-1.1,1.68-1.63a7.8,7.8,0,0,1,1.8-1.32s0,0,0-.05a2.08,2.08,0,0,0-.29-.19,5.42,5.42,0,0,0-.6-.26A3.8,3.8,0,0,0,211,.53a5.28,5.28,0,0,0-2.83,1.3c-.86.78-1.72,1.58-2.57,2.38-.68.64-1.35,1.3-2,2a8,8,0,0,1-1.3,1l-.45.26.1.09.15.1a4.16,4.16,0,0,0,1.94.54,4.92,4.92,0,0,0,3.28-1.22C208.27,6.05,209.23,5.12,210.2,4.21Z"/><path class="cls-1" d="M205.43,3.6l.8-.79a8.86,8.86,0,0,1,2.1-1.57,1.66,1.66,0,0,0-.24-.18,6.71,6.71,0,0,0-.68-.3,3.76,3.76,0,0,0-1.88-.22,5.24,5.24,0,0,0-2.8,1.31Q201,3.43,199.34,5a12.94,12.94,0,0,1-3,2.39c.11.07.18.14.26.18a4.06,4.06,0,0,0,2.69.49,5.31,5.31,0,0,0,2.74-1.33Q203.76,5.19,205.43,3.6Z"/><path class="cls-1" d="M200.71,2.93a9.2,9.2,0,0,1,2.17-1.66s0,0,0-.06a2.53,2.53,0,0,0-.27-.18c-.21-.1-.42-.2-.64-.28a3.79,3.79,0,0,0-1.83-.21,5.35,5.35,0,0,0-2.83,1.3c-1.36,1.2-2.66,2.46-4,3.73a9,9,0,0,1-2.32,1.81s0,0,0,.06.15.12.24.17a4.16,4.16,0,0,0,2,.54A5.12,5.12,0,0,0,196.35,7c.25-.2.49-.41.72-.62Z"/><path class="cls-1" d="M161.58,4.27l1-1c.33-.32.66-.64,1-.95a7,7,0,0,1,1.24-.93l.33-.18a.42.42,0,0,0-.13-.11,2.16,2.16,0,0,0-.3-.18,4.26,4.26,0,0,0-2.51-.39h0a5.14,5.14,0,0,0-2.6,1.25c-.88.8-1.75,1.6-2.61,2.42-.68.64-1.34,1.3-2,1.94a6.63,6.63,0,0,1-1.67,1.2l0,.06.25.18a4.07,4.07,0,0,0,2,.53,5,5,0,0,0,3.33-1.28C159.74,6,160.66,5.14,161.58,4.27Z"/><path class="cls-1" d="M113.77,3.56a12.59,12.59,0,0,1,2.86-2.32,1.21,1.21,0,0,0-.23-.18,4.12,4.12,0,0,0-2.81-.48A5.55,5.55,0,0,0,110.91,2l-2.44,2.27a1.13,1.13,0,0,1-.18.12v.11c-.57.56-1.14,1.12-1.72,1.66a7.06,7.06,0,0,1-1.75,1.27l0,.08.09,0a2.61,2.61,0,0,0,.28.17,4.11,4.11,0,0,0,3.15.29c.34-.11.66-.25,1-.37v0a4.29,4.29,0,0,0,1-.7C111.46,5.75,112.62,4.67,113.77,3.56Z"/><path class="cls-1" d="M167.69,3.56a12.59,12.59,0,0,1,2.86-2.32,1.21,1.21,0,0,0-.23-.18,4.12,4.12,0,0,0-2.81-.48A5.55,5.55,0,0,0,164.83,2L163.16,3.5h0l-.08.08-.69.64a1.13,1.13,0,0,1-.18.12v.07c-.58.57-1.17,1.14-1.77,1.7a6.88,6.88,0,0,1-1.75,1.27.59.59,0,0,1-.05.08l.09,0c.1.06.18.12.28.17a4.11,4.11,0,0,0,3.15.29l.14,0a5.92,5.92,0,0,0,.66-.25l.2-.07v0a4.4,4.4,0,0,0,1.05-.73C165.38,5.75,166.54,4.67,167.69,3.56Z"/><path class="cls-1" d="M135.54,3.35a11.51,11.51,0,0,1,2.64-2.11s0-.05-.06-.06l-.2-.14a4.2,4.2,0,0,0-2.1-.53,5,5,0,0,0-3.07,1.21c-1.34,1.13-2.59,2.37-3.84,3.6a11.37,11.37,0,0,1-2.63,2.09l0,.07.13.09a4,4,0,0,0,2.35.57,5.06,5.06,0,0,0,3.08-1.34Q133.74,5.09,135.54,3.35Z"/><path class="cls-1" d="M130.14,3.36a15.94,15.94,0,0,1,1.73-1.55c.29-.2.6-.39.91-.59a1.31,1.31,0,0,0-.24-.17,4.18,4.18,0,0,0-2.12-.54,5.06,5.06,0,0,0-3,1.19c-1.34,1.13-2.58,2.36-3.83,3.58a11.22,11.22,0,0,1-2.68,2.14,2.21,2.21,0,0,0,.23.17,4,4,0,0,0,2.27.55,5.08,5.08,0,0,0,3-1.23C127.68,5.78,128.91,4.57,130.14,3.36Z"/><path class="cls-1" d="M119.35,3.35A11.77,11.77,0,0,1,122,1.23l-.22-.15a4,4,0,0,0-2.52-.54,5.07,5.07,0,0,0-2.82,1.27c-1,.92-2,1.86-3,2.79-.62.58-1.22,1.18-1.84,1.75a6.19,6.19,0,0,1-1.47,1s0,0,0,.06l.18.13a4,4,0,0,0,2.35.57,5.11,5.11,0,0,0,3.07-1.32C116.92,5.67,118.14,4.52,119.35,3.35Z"/><path class="cls-1" d="M124.78,3.32a11.07,11.07,0,0,1,2.62-2.08c-.09-.07-.17-.14-.25-.19a4.14,4.14,0,0,0-2.8-.47A5.73,5.73,0,0,0,121.66,2c-1.32,1.2-2.61,2.44-3.89,3.69a9.19,9.19,0,0,1-2.26,1.75v0l0,0,.2.14a4.13,4.13,0,0,0,1.94.54A5.07,5.07,0,0,0,121,6.9C122.3,5.76,123.55,4.54,124.78,3.32Z"/><path class="cls-1" d="M141,3.37a11.17,11.17,0,0,1,2.67-2.14l-.23-.16A4.11,4.11,0,0,0,140.9.53a5.12,5.12,0,0,0-2.82,1.26c-1,.91-2,1.84-3,2.77-.59.55-1.15,1.12-1.74,1.66a6.4,6.4,0,0,1-1.62,1.16.1.1,0,0,0,0,0,.6.6,0,0,0,.08.08l.17.11a4.19,4.19,0,0,0,1.92.53A5,5,0,0,0,137.2,6.9C138.5,5.78,139.73,4.58,141,3.37Z"/><path class="cls-1" d="M156.28,4.21c.57-.54,1.11-1.1,1.68-1.63a7.8,7.8,0,0,1,1.8-1.32s0,0,0-.05a2.08,2.08,0,0,0-.29-.19,5.42,5.42,0,0,0-.6-.26,3.8,3.8,0,0,0-1.83-.23,5.28,5.28,0,0,0-2.83,1.3c-.86.78-1.72,1.58-2.57,2.38-.68.64-1.35,1.3-2,2a8.39,8.39,0,0,1-1.29,1l-.46.26.1.09.15.1a4.16,4.16,0,0,0,1.94.54,4.92,4.92,0,0,0,3.28-1.22C154.35,6.05,155.31,5.12,156.28,4.21Z"/><path class="cls-1" d="M151.51,3.6l.8-.79a8.86,8.86,0,0,1,2.1-1.57,1.66,1.66,0,0,0-.24-.18,6.71,6.71,0,0,0-.68-.3,3.76,3.76,0,0,0-1.88-.22,5.24,5.24,0,0,0-2.8,1.31Q147.1,3.43,145.42,5a12.94,12.94,0,0,1-2.95,2.39c.11.07.18.14.26.18a4.06,4.06,0,0,0,2.69.49,5.31,5.31,0,0,0,2.74-1.33Q149.84,5.19,151.51,3.6Z"/><path class="cls-1" d="M146.79,2.93A9.2,9.2,0,0,1,149,1.27s0,0,0-.06a2.53,2.53,0,0,0-.27-.18c-.21-.1-.42-.2-.64-.28a3.79,3.79,0,0,0-1.83-.21,5.35,5.35,0,0,0-2.83,1.3c-1.36,1.2-2.66,2.46-4,3.73a8.91,8.91,0,0,1-2.33,1.81s0,0,0,.06.15.12.24.17a4.16,4.16,0,0,0,2,.54A5.17,5.17,0,0,0,142.44,7l.71-.62Z"/><path class="cls-1" d="M107.71,4.27c.54-.51,1.05-1,1.58-1.56h0c.12-.12.24-.24.37-.35a7,7,0,0,1,1.24-.93l.33-.18a.57.57,0,0,0-.12-.11A3.14,3.14,0,0,0,110.8,1a4.82,4.82,0,0,0-1.51-.43h-.07a3.67,3.67,0,0,0-.93,0v0a5.16,5.16,0,0,0-2.56,1.24c-.87.8-1.74,1.6-2.6,2.42-.69.64-1.35,1.3-2,1.94a6.63,6.63,0,0,1-1.67,1.2s0,0,0,.06a2.27,2.27,0,0,0,.25.18,4.07,4.07,0,0,0,2,.53,5,5,0,0,0,3.33-1.28C105.86,6,106.79,5.14,107.71,4.27Z"/><path class="cls-1" d="M81.67,3.35A11.67,11.67,0,0,1,84.3,1.24s0-.05-.06-.06A1,1,0,0,0,84,1a4.15,4.15,0,0,0-2.1-.53,5,5,0,0,0-3.06,1.21c-1.34,1.13-2.6,2.37-3.85,3.6A11.17,11.17,0,0,1,72.4,7.41s0,.06.06.07l.12.09a4,4,0,0,0,2.35.57A5.11,5.11,0,0,0,78,6.8Q79.85,5.09,81.67,3.35Z"/><path class="cls-1" d="M76.26,3.36A17,17,0,0,1,78,1.81c.28-.2.59-.39.9-.59a1,1,0,0,0-.24-.17A4.13,4.13,0,0,0,76.54.51a5.05,5.05,0,0,0-3,1.19c-1.34,1.13-2.58,2.36-3.83,3.58A11.22,11.22,0,0,1,67,7.42a1.5,1.5,0,0,0,.23.17,4,4,0,0,0,2.27.55,5.08,5.08,0,0,0,3-1.23C73.8,5.78,75,4.57,76.26,3.36Z"/><path class="cls-1" d="M65.48,3.35a11.93,11.93,0,0,1,2.65-2.12l-.21-.15A4,4,0,0,0,65.39.54a5,5,0,0,0-2.81,1.27c-1,.92-2,1.86-3,2.79-.62.58-1.22,1.18-1.85,1.75a5.81,5.81,0,0,1-1.47,1s0,0,0,.06.11.09.18.13a4,4,0,0,0,2.35.57,5.06,5.06,0,0,0,3.06-1.32C63,5.67,64.27,4.52,65.48,3.35Z"/><path class="cls-1" d="M70.91,3.32a10.88,10.88,0,0,1,2.62-2.08c-.1-.07-.17-.14-.26-.19A4.11,4.11,0,0,0,70.48.58,5.76,5.76,0,0,0,67.78,2c-1.32,1.2-2.61,2.44-3.88,3.69A9.38,9.38,0,0,1,61.64,7.4s0,0,0,0,0,0,0,0a1.33,1.33,0,0,0,.19.14,4.2,4.2,0,0,0,1.95.54A5,5,0,0,0,67.11,6.9C68.43,5.76,69.67,4.54,70.91,3.32Z"/><path class="cls-1" d="M87.08,3.37a11,11,0,0,1,2.67-2.14,2,2,0,0,0-.24-.16A4.07,4.07,0,0,0,87,.53a5.12,5.12,0,0,0-2.82,1.26c-1,.91-2,1.84-3,2.77-.59.55-1.15,1.12-1.75,1.66a6.4,6.4,0,0,1-1.62,1.16l0,0a.6.6,0,0,0,.08.08l.16.11A4.27,4.27,0,0,0,80,8.15,5,5,0,0,0,83.32,6.9C84.63,5.78,85.85,4.58,87.08,3.37Z"/><path class="cls-1" d="M102.4,4.21c.57-.54,1.12-1.1,1.69-1.63a7.59,7.59,0,0,1,1.8-1.32.18.18,0,0,1,0-.05,2.75,2.75,0,0,0-.28-.19c-.2-.09-.4-.19-.6-.26a3.82,3.82,0,0,0-1.83-.23,5.24,5.24,0,0,0-2.83,1.3c-.87.78-1.73,1.58-2.58,2.38-.68.64-1.34,1.3-2,2a8.47,8.47,0,0,1-1.3,1c-.14.09-.29.16-.46.26l.11.09.15.1a4.13,4.13,0,0,0,1.94.54,4.94,4.94,0,0,0,3.28-1.22C100.48,6.05,101.44,5.12,102.4,4.21Z"/><path class="cls-1" d="M97.64,3.6c.27-.26.52-.53.8-.79a8.67,8.67,0,0,1,2.1-1.57,1.71,1.71,0,0,0-.25-.18,5.19,5.19,0,0,0-.68-.3A3.73,3.73,0,0,0,97.74.54a5.24,5.24,0,0,0-2.8,1.31C93.8,2.9,92.66,4,91.54,5A12.67,12.67,0,0,1,88.6,7.42a1.75,1.75,0,0,0,.26.18,4,4,0,0,0,2.68.49,5.3,5.3,0,0,0,2.75-1.33Z"/><path class="cls-1" d="M92.92,2.93a9,9,0,0,1,2.17-1.66s0,0,0-.06A2.53,2.53,0,0,0,94.85,1c-.21-.1-.42-.2-.64-.28A3.79,3.79,0,0,0,92.38.54a5.35,5.35,0,0,0-2.83,1.3c-1.36,1.2-2.67,2.46-4,3.73a9.07,9.07,0,0,1-2.33,1.81s0,0,0,.06.15.12.24.17a4.13,4.13,0,0,0,2,.54A5.14,5.14,0,0,0,88.56,7c.25-.2.49-.41.71-.62Z"/><path class="cls-1" d="M53.79,4.27c.34-.32.67-.65,1-1s.66-.64,1-.95A7.51,7.51,0,0,1,57,1.42l.33-.18a.58.58,0,0,0-.13-.11c-.1-.06-.2-.13-.3-.18A4.26,4.26,0,0,0,54.42.56h0a5.18,5.18,0,0,0-2.61,1.25c-.87.8-1.74,1.6-2.6,2.42-.69.64-1.35,1.3-2,1.94a6.63,6.63,0,0,1-1.67,1.2s0,0,0,.06a2.27,2.27,0,0,0,.25.18,4.07,4.07,0,0,0,2,.53A5,5,0,0,0,51,6.87C51.94,6,52.87,5.14,53.79,4.27Z"/><path class="cls-1" d="M6,3.56A12.38,12.38,0,0,1,8.84,1.24a1.21,1.21,0,0,0-.23-.18A4.14,4.14,0,0,0,5.79.58,5.56,5.56,0,0,0,3.12,2L.68,4.22a1.13,1.13,0,0,1-.18.12v3.6a4.8,4.8,0,0,0,2-1.1C3.66,5.75,4.83,4.67,6,3.56Z"/><path class="cls-1" d="M59.9,3.56a12.38,12.38,0,0,1,2.86-2.32,1.21,1.21,0,0,0-.23-.18A4.14,4.14,0,0,0,59.71.58,5.56,5.56,0,0,0,57,2L55.37,3.5h0l-.09.08-.68.64a1.13,1.13,0,0,1-.18.12v.07c-.59.57-1.17,1.14-1.77,1.7A7.06,7.06,0,0,1,50.9,7.38l0,.08.09,0a2.61,2.61,0,0,0,.28.17A4.11,4.11,0,0,0,54.37,8l.13,0a4.73,4.73,0,0,0,.66-.25l.21-.07v0a4.4,4.4,0,0,0,1.05-.73C57.58,5.75,58.75,4.67,59.9,3.56Z"/><path class="cls-1" d="M1.86,2.35a7.51,7.51,0,0,1,1.25-.93l.33-.18a.58.58,0,0,0-.13-.11C3.21,1.07,3.11,1,3,1A4.26,4.26,0,0,0,.5.56v3l.19-.13C1.08,3.09,1.47,2.71,1.86,2.35Z"/><path class="cls-1" d="M27.75,3.35a11.67,11.67,0,0,1,2.63-2.11s0-.05-.06-.06A1.33,1.33,0,0,0,30.13,1,4.21,4.21,0,0,0,28,.51,5,5,0,0,0,25,1.72c-1.34,1.13-2.59,2.37-3.85,3.6a11.17,11.17,0,0,1-2.63,2.09s0,.06.06.07l.12.09A4,4,0,0,0,21,8.14,5.11,5.11,0,0,0,24.1,6.8Q25.93,5.09,27.75,3.35Z"/><path class="cls-1" d="M22.34,3.36a17,17,0,0,1,1.74-1.55c.28-.2.59-.39.9-.59a1,1,0,0,0-.24-.17A4.13,4.13,0,0,0,22.62.51a5.05,5.05,0,0,0-3,1.19C18.24,2.83,17,4.06,15.75,5.28a11.22,11.22,0,0,1-2.68,2.14,2.21,2.21,0,0,0,.23.17,4,4,0,0,0,2.27.55,5.08,5.08,0,0,0,3-1.23C19.88,5.78,21.12,4.57,22.34,3.36Z"/><path class="cls-1" d="M11.56,3.35a11.93,11.93,0,0,1,2.65-2.12A2.12,2.12,0,0,0,14,1.08,4,4,0,0,0,11.47.54,5,5,0,0,0,8.66,1.81c-1,.92-2,1.86-3,2.79C5,5.18,4.44,5.78,3.81,6.35a5.81,5.81,0,0,1-1.47,1s0,0,0,.06.11.09.18.13a4,4,0,0,0,2.35.57A5.06,5.06,0,0,0,7.89,6.82C9.12,5.67,10.35,4.52,11.56,3.35Z"/><path class="cls-1" d="M17,3.32a10.88,10.88,0,0,1,2.62-2.08c-.1-.07-.17-.14-.26-.19A4.11,4.11,0,0,0,16.56.58,5.76,5.76,0,0,0,13.86,2C12.54,3.16,11.25,4.4,10,5.65A9.38,9.38,0,0,1,7.72,7.4s0,0,0,0,0,0,0,0a1.33,1.33,0,0,0,.19.14,4.2,4.2,0,0,0,2,.54A5,5,0,0,0,13.19,6.9C14.51,5.76,15.75,4.54,17,3.32Z"/><path class="cls-1" d="M33.16,3.37a11,11,0,0,1,2.67-2.14,1.43,1.43,0,0,0-.24-.16A4.07,4.07,0,0,0,33.11.53a5.12,5.12,0,0,0-2.82,1.26c-1,.91-2,1.84-3,2.77-.59.55-1.15,1.12-1.75,1.66A6.4,6.4,0,0,1,24,7.38l0,0a.6.6,0,0,0,.08.08l.16.11a4.27,4.27,0,0,0,1.93.53A5,5,0,0,0,29.4,6.9C30.71,5.78,31.93,4.58,33.16,3.37Z"/><path class="cls-1" d="M48.48,4.21c.57-.54,1.12-1.1,1.69-1.63A7.59,7.59,0,0,1,52,1.26a.12.12,0,0,0,0-.05A2.75,2.75,0,0,0,51.7,1c-.2-.09-.4-.19-.6-.26A3.83,3.83,0,0,0,49.27.53a5.24,5.24,0,0,0-2.83,1.3c-.87.78-1.73,1.58-2.58,2.38-.68.64-1.34,1.3-2,2a8.47,8.47,0,0,1-1.3,1c-.14.09-.29.16-.46.26l.11.09.15.1a4.13,4.13,0,0,0,1.94.54,4.94,4.94,0,0,0,3.28-1.22C46.56,6.05,47.52,5.12,48.48,4.21Z"/><path class="cls-1" d="M43.72,3.6c.27-.26.52-.53.8-.79a8.67,8.67,0,0,1,2.1-1.57,1.71,1.71,0,0,0-.25-.18,5.19,5.19,0,0,0-.68-.3A3.73,3.73,0,0,0,43.82.54,5.24,5.24,0,0,0,41,1.85C39.88,2.9,38.74,4,37.62,5a12.67,12.67,0,0,1-2.94,2.39,1.75,1.75,0,0,0,.26.18,4,4,0,0,0,2.68.49,5.3,5.3,0,0,0,2.75-1.33Z"/><path class="cls-1" d="M39,2.93a9,9,0,0,1,2.17-1.66s0,0,0-.06A2.53,2.53,0,0,0,40.93,1c-.21-.1-.42-.2-.64-.28A3.79,3.79,0,0,0,38.46.54a5.35,5.35,0,0,0-2.83,1.3C34.27,3,33,4.3,31.67,5.57a9.07,9.07,0,0,1-2.33,1.81s0,0,0,.06.15.12.24.17a4.13,4.13,0,0,0,2,.54A5.14,5.14,0,0,0,34.64,7c.25-.2.49-.41.71-.62Z"/><path class="cls-1" d="M432.18.54a5.15,5.15,0,0,0-2.83,1.28c-.88.8-1.75,1.6-2.61,2.42-.68.64-1.34,1.3-2,1.94A6.63,6.63,0,0,1,423,7.38l0,.06c.09.06.16.13.25.18a4.07,4.07,0,0,0,1.95.53,5,5,0,0,0,3.33-1.28c1-.85,1.87-1.73,2.79-2.6.54-.51,1.06-1,1.58-1.56V.52A4.33,4.33,0,0,0,432.18.54Z"/><path class="cls-1" d="M430.18,6.11a7.06,7.06,0,0,1-1.75,1.27.59.59,0,0,1-.05.08l.09,0c.1.06.18.12.28.17A4.11,4.11,0,0,0,431.9,8c.34-.11.67-.25,1-.37V3.5l-.57.54C431.61,4.73,430.91,5.43,430.18,6.11Z"/><path class="cls-1" d="M405.28,3.35a11.51,11.51,0,0,1,2.64-2.11s0-.05-.06-.06l-.2-.14a4.2,4.2,0,0,0-2.1-.53,5,5,0,0,0-3.07,1.21c-1.34,1.13-2.59,2.37-3.85,3.6A11.32,11.32,0,0,1,396,7.41a.25.25,0,0,0,.05.07l.13.09a4,4,0,0,0,2.35.57,5.08,5.08,0,0,0,3.08-1.34Q403.48,5.09,405.28,3.35Z"/><path class="cls-1" d="M399.88,3.36a15.94,15.94,0,0,1,1.73-1.55c.29-.2.59-.39.91-.59a1.77,1.77,0,0,0-.24-.17,4.18,4.18,0,0,0-2.12-.54,5.06,5.06,0,0,0-3.05,1.19c-1.34,1.13-2.58,2.36-3.83,3.58a11.22,11.22,0,0,1-2.68,2.14,2.21,2.21,0,0,0,.23.17,4,4,0,0,0,2.27.55,5.08,5.08,0,0,0,3-1.23C397.41,5.78,398.65,4.57,399.88,3.36Z"/><path class="cls-1" d="M389.09,3.35a11.77,11.77,0,0,1,2.66-2.12l-.22-.15A4,4,0,0,0,389,.54a5.07,5.07,0,0,0-2.81,1.27c-1,.92-2,1.86-3,2.79-.62.58-1.22,1.18-1.84,1.75a6.19,6.19,0,0,1-1.47,1s0,0-.05.06l.18.13a4,4,0,0,0,2.35.57,5.06,5.06,0,0,0,3.06-1.32C386.66,5.67,387.88,4.52,389.09,3.35Z"/><path class="cls-1" d="M394.52,3.32a11.07,11.07,0,0,1,2.62-2.08c-.09-.07-.17-.14-.25-.19a4.14,4.14,0,0,0-2.8-.47A5.73,5.73,0,0,0,391.4,2c-1.32,1.2-2.61,2.44-3.89,3.69a9.19,9.19,0,0,1-2.26,1.75v0s0,0,0,0l.2.14a4.13,4.13,0,0,0,1.94.54,5.07,5.07,0,0,0,3.32-1.25C392,5.76,393.28,4.54,394.52,3.32Z"/><path class="cls-1" d="M410.69,3.37a11.17,11.17,0,0,1,2.67-2.14l-.23-.16a4.11,4.11,0,0,0-2.49-.54,5.12,5.12,0,0,0-2.82,1.26c-1,.91-2,1.84-3,2.77-.59.55-1.15,1.12-1.74,1.66a6.58,6.58,0,0,1-1.62,1.16.1.1,0,0,0,0,0l.08.08.17.11a4.19,4.19,0,0,0,1.92.53,5,5,0,0,0,3.32-1.25C408.24,5.78,409.46,4.58,410.69,3.37Z"/><path class="cls-1" d="M426,4.21c.56-.54,1.11-1.1,1.68-1.63a7.8,7.8,0,0,1,1.8-1.32s0,0,0-.05a2.08,2.08,0,0,0-.29-.19,5.42,5.42,0,0,0-.6-.26A3.8,3.8,0,0,0,426.8.53,5.24,5.24,0,0,0,424,1.83c-.87.78-1.72,1.58-2.57,2.38-.68.64-1.35,1.3-2,2a8.47,8.47,0,0,1-1.3,1l-.45.26.1.09.15.1a4.16,4.16,0,0,0,1.94.54,4.92,4.92,0,0,0,3.28-1.22C424.09,6.05,425.05,5.12,426,4.21Z"/><path class="cls-1" d="M421.25,3.6l.8-.79a8.67,8.67,0,0,1,2.1-1.57,1.66,1.66,0,0,0-.24-.18,6.71,6.71,0,0,0-.68-.3,3.76,3.76,0,0,0-1.88-.22,5.24,5.24,0,0,0-2.8,1.31c-1.14,1-2.28,2.11-3.39,3.18a12.94,12.94,0,0,1-3,2.39c.11.07.18.14.26.18a4.06,4.06,0,0,0,2.69.49,5.31,5.31,0,0,0,2.74-1.33Q419.58,5.19,421.25,3.6Z"/><path class="cls-1" d="M416.53,2.93a9,9,0,0,1,2.17-1.66s0,0,0-.06a2.53,2.53,0,0,0-.27-.18c-.21-.1-.42-.2-.64-.28A3.79,3.79,0,0,0,416,.54a5.35,5.35,0,0,0-2.83,1.3c-1.36,1.2-2.66,2.46-4,3.73a8.91,8.91,0,0,1-2.33,1.81s0,0,0,.06.15.12.24.17a4.13,4.13,0,0,0,2,.54A5.12,5.12,0,0,0,412.17,7c.25-.2.49-.41.71-.62Z"/><path class="cls-1" d="M377.4,4.27l1-1c.33-.32.66-.64,1-.95a7,7,0,0,1,1.24-.93l.33-.18a.42.42,0,0,0-.13-.11,2.16,2.16,0,0,0-.3-.18A4.26,4.26,0,0,0,378,.56h0a5.22,5.22,0,0,0-2.61,1.25c-.87.8-1.74,1.6-2.6,2.42-.68.64-1.34,1.3-2,1.94a6.63,6.63,0,0,1-1.67,1.2l0,.06c.09.06.16.13.25.18a4.07,4.07,0,0,0,1.95.53,5,5,0,0,0,3.33-1.28C375.56,6,376.48,5.14,377.4,4.27Z"/><path class="cls-1" d="M329.59,3.56a12.38,12.38,0,0,1,2.86-2.32,1.21,1.21,0,0,0-.23-.18,4.12,4.12,0,0,0-2.81-.48A5.55,5.55,0,0,0,326.73,2l-2.44,2.27a1.13,1.13,0,0,1-.18.12v.11c-.57.56-1.14,1.12-1.72,1.66a7.06,7.06,0,0,1-1.75,1.27l-.05.08.09,0a2.61,2.61,0,0,0,.28.17A4.09,4.09,0,0,0,324.1,8c.34-.11.67-.25,1-.37v0a4.29,4.29,0,0,0,1-.7C327.28,5.75,328.44,4.67,329.59,3.56Z"/><path class="cls-1" d="M383.51,3.56a12.38,12.38,0,0,1,2.86-2.32,1.21,1.21,0,0,0-.23-.18,4.12,4.12,0,0,0-2.81-.48A5.55,5.55,0,0,0,380.65,2L379,3.5h0l-.08.08-.69.64a1.13,1.13,0,0,1-.18.12v.07c-.59.57-1.17,1.14-1.77,1.7a7.06,7.06,0,0,1-1.75,1.27.59.59,0,0,1-.05.08l.09,0c.1.06.18.12.28.17A4.11,4.11,0,0,0,378,8l.13,0a5.4,5.4,0,0,0,.67-.25l.2-.07v0a4.4,4.4,0,0,0,1-.73C381.2,5.75,382.36,4.67,383.51,3.56Z"/><path class="cls-1" d="M351.36,3.35A11.51,11.51,0,0,1,354,1.24l-.06-.06-.2-.14a4.2,4.2,0,0,0-2.1-.53,5,5,0,0,0-3.07,1.21c-1.34,1.13-2.59,2.37-3.85,3.6a11.32,11.32,0,0,1-2.62,2.09.25.25,0,0,0,0,.07l.13.09a4,4,0,0,0,2.35.57,5.08,5.08,0,0,0,3.08-1.34Q349.56,5.09,351.36,3.35Z"/><path class="cls-1" d="M346,3.36a15.94,15.94,0,0,1,1.73-1.55c.29-.2.59-.39.91-.59a1.77,1.77,0,0,0-.24-.17,4.18,4.18,0,0,0-2.12-.54,5.06,5.06,0,0,0-3.05,1.19c-1.34,1.13-2.58,2.36-3.83,3.58a11.22,11.22,0,0,1-2.68,2.14,2.21,2.21,0,0,0,.23.17,4,4,0,0,0,2.27.55,5.08,5.08,0,0,0,3-1.23C343.49,5.78,344.73,4.57,346,3.36Z"/><path class="cls-1" d="M335.17,3.35a11.77,11.77,0,0,1,2.66-2.12l-.22-.15a4,4,0,0,0-2.52-.54,5.07,5.07,0,0,0-2.82,1.27c-1,.92-2,1.86-3,2.79-.62.58-1.22,1.18-1.84,1.75a6,6,0,0,1-1.48,1s0,0,0,.06l.18.13a4,4,0,0,0,2.35.57,5.06,5.06,0,0,0,3.06-1.32C332.74,5.67,334,4.52,335.17,3.35Z"/><path class="cls-1" d="M340.6,3.32a11.07,11.07,0,0,1,2.62-2.08c-.09-.07-.17-.14-.25-.19a4.14,4.14,0,0,0-2.8-.47A5.73,5.73,0,0,0,337.48,2c-1.32,1.2-2.61,2.44-3.89,3.69a9.19,9.19,0,0,1-2.26,1.75v0s0,0,0,0l.2.14a4.13,4.13,0,0,0,1.94.54,5.07,5.07,0,0,0,3.32-1.25C338.12,5.76,339.36,4.54,340.6,3.32Z"/><path class="cls-1" d="M356.77,3.37a11.17,11.17,0,0,1,2.67-2.14l-.23-.16a4.11,4.11,0,0,0-2.49-.54,5.12,5.12,0,0,0-2.82,1.26c-1,.91-2,1.84-3,2.77-.59.55-1.15,1.12-1.74,1.66a6.58,6.58,0,0,1-1.62,1.16.1.1,0,0,0,0,0,.6.6,0,0,0,.08.08l.17.11a4.19,4.19,0,0,0,1.92.53A5,5,0,0,0,353,6.9C354.32,5.78,355.54,4.58,356.77,3.37Z"/><path class="cls-1" d="M372.1,4.21c.56-.54,1.11-1.1,1.68-1.63a7.8,7.8,0,0,1,1.8-1.32s0,0,0-.05a2.08,2.08,0,0,0-.29-.19,5.42,5.42,0,0,0-.6-.26,3.8,3.8,0,0,0-1.83-.23,5.24,5.24,0,0,0-2.83,1.3c-.87.78-1.72,1.58-2.57,2.38-.68.64-1.35,1.3-2,2a8.47,8.47,0,0,1-1.3,1l-.45.26.1.09.15.1a4.16,4.16,0,0,0,1.94.54,4.92,4.92,0,0,0,3.28-1.22C370.17,6.05,371.13,5.12,372.1,4.21Z"/><path class="cls-1" d="M367.33,3.6l.8-.79a8.67,8.67,0,0,1,2.1-1.57,1.66,1.66,0,0,0-.24-.18,6.71,6.71,0,0,0-.68-.3,3.76,3.76,0,0,0-1.88-.22,5.24,5.24,0,0,0-2.8,1.31c-1.14,1-2.28,2.11-3.39,3.18a12.94,12.94,0,0,1-2.95,2.39c.11.07.18.14.26.18a4.06,4.06,0,0,0,2.69.49A5.31,5.31,0,0,0,364,6.76Q365.66,5.19,367.33,3.6Z"/><path class="cls-1" d="M362.61,2.93a9,9,0,0,1,2.17-1.66s0,0,0-.06a2.53,2.53,0,0,0-.27-.18c-.21-.1-.42-.2-.64-.28a3.79,3.79,0,0,0-1.83-.21,5.35,5.35,0,0,0-2.83,1.3c-1.36,1.2-2.66,2.46-4,3.73A8.91,8.91,0,0,1,353,7.38s0,0,0,.06.15.12.24.17a4.13,4.13,0,0,0,2,.54A5.12,5.12,0,0,0,358.25,7c.25-.2.49-.41.72-.62Z"/><path class="cls-1" d="M323.53,4.27c.54-.51,1.05-1,1.58-1.56h0c.12-.12.24-.24.37-.35a7,7,0,0,1,1.24-.93l.33-.18a.42.42,0,0,0-.13-.11,2.16,2.16,0,0,0-.3-.18,4.82,4.82,0,0,0-1.51-.43H325a3.65,3.65,0,0,0-.93,0v0a5.16,5.16,0,0,0-2.56,1.24c-.87.8-1.74,1.6-2.61,2.42-.68.64-1.34,1.3-2,1.94a6.81,6.81,0,0,1-1.67,1.2s0,0,0,.06a2.27,2.27,0,0,0,.25.18,4.07,4.07,0,0,0,2,.53,5,5,0,0,0,3.33-1.28C321.68,6,322.61,5.14,323.53,4.27Z"/><path class="cls-1" d="M297.49,3.35a11.67,11.67,0,0,1,2.63-2.11s0-.05-.06-.06a1,1,0,0,0-.2-.14,4.15,4.15,0,0,0-2.1-.53,5,5,0,0,0-3.07,1.21c-1.33,1.13-2.59,2.37-3.84,3.6a11.17,11.17,0,0,1-2.63,2.09s0,.06.06.07l.12.09a4,4,0,0,0,2.35.57,5.11,5.11,0,0,0,3.09-1.34Q295.67,5.09,297.49,3.35Z"/><path class="cls-1" d="M292.08,3.36a17,17,0,0,1,1.74-1.55c.28-.2.59-.39.9-.59a1,1,0,0,0-.24-.17,4.13,4.13,0,0,0-2.12-.54,5.05,5.05,0,0,0-3,1.19c-1.34,1.13-2.58,2.36-3.83,3.58a11.22,11.22,0,0,1-2.68,2.14,1.5,1.5,0,0,0,.23.17,4,4,0,0,0,2.27.55,5.1,5.1,0,0,0,3-1.23C289.62,5.78,290.86,4.57,292.08,3.36Z"/><path class="cls-1" d="M281.3,3.35A11.71,11.71,0,0,1,284,1.23a2.12,2.12,0,0,0-.21-.15,4,4,0,0,0-2.53-.54,5,5,0,0,0-2.81,1.27c-1,.92-2,1.86-3,2.79-.62.58-1.22,1.18-1.85,1.75a5.81,5.81,0,0,1-1.47,1s0,0,0,.06.11.09.18.13a4,4,0,0,0,2.35.57,5.09,5.09,0,0,0,3.06-1.32C278.86,5.67,280.08,4.52,281.3,3.35Z"/><path class="cls-1" d="M286.73,3.32a10.88,10.88,0,0,1,2.62-2.08c-.1-.07-.17-.14-.26-.19A4.11,4.11,0,0,0,286.3.58,5.76,5.76,0,0,0,283.6,2c-1.32,1.2-2.61,2.44-3.88,3.69a9.38,9.38,0,0,1-2.26,1.75s0,0,0,0a.05.05,0,0,0,0,0,1.33,1.33,0,0,0,.19.14,4.2,4.2,0,0,0,1.95.54,5,5,0,0,0,3.31-1.25C284.25,5.76,285.49,4.54,286.73,3.32Z"/><path class="cls-1" d="M302.89,3.37a11.22,11.22,0,0,1,2.68-2.14,2,2,0,0,0-.24-.16,4.07,4.07,0,0,0-2.48-.54A5.09,5.09,0,0,0,300,1.79c-1,.91-2,1.84-3,2.77-.58.55-1.15,1.12-1.74,1.66a6.4,6.4,0,0,1-1.62,1.16l0,0,.09.08a.91.91,0,0,0,.16.11,4.27,4.27,0,0,0,1.93.53,5,5,0,0,0,3.31-1.25C300.45,5.78,301.67,4.58,302.89,3.37Z"/><path class="cls-1" d="M318.22,4.21c.57-.54,1.12-1.1,1.69-1.63a7.59,7.59,0,0,1,1.8-1.32.18.18,0,0,1,0-.05,2.75,2.75,0,0,0-.28-.19c-.2-.09-.4-.19-.6-.26A3.83,3.83,0,0,0,319,.53a5.24,5.24,0,0,0-2.83,1.3c-.87.78-1.73,1.58-2.58,2.38-.68.64-1.34,1.3-2,2a8.47,8.47,0,0,1-1.3,1c-.14.09-.29.16-.46.26l.11.09c.05,0,.09.07.15.1a4.13,4.13,0,0,0,1.94.54,4.94,4.94,0,0,0,3.28-1.22C316.3,6.05,317.25,5.12,318.22,4.21Z"/><path class="cls-1" d="M313.46,3.6c.27-.26.52-.53.79-.79a8.92,8.92,0,0,1,2.11-1.57,1.71,1.71,0,0,0-.25-.18,5.19,5.19,0,0,0-.68-.3,3.73,3.73,0,0,0-1.87-.22,5.24,5.24,0,0,0-2.8,1.31c-1.14,1-2.28,2.11-3.4,3.18a12.67,12.67,0,0,1-2.94,2.39,1.75,1.75,0,0,0,.26.18,4,4,0,0,0,2.68.49,5.3,5.3,0,0,0,2.75-1.33Z"/><path class="cls-1" d="M308.74,2.93a9,9,0,0,1,2.17-1.66s0,0,0-.06a2.53,2.53,0,0,0-.27-.18c-.21-.1-.42-.2-.64-.28a3.85,3.85,0,0,0-1.84-.21,5.36,5.36,0,0,0-2.82,1.3c-1.36,1.2-2.67,2.46-4,3.73a9.07,9.07,0,0,1-2.33,1.81.16.16,0,0,0,0,.06,2.49,2.49,0,0,0,.24.17,4.13,4.13,0,0,0,2,.54A5.14,5.14,0,0,0,304.38,7c.25-.2.48-.41.71-.62Z"/><path class="cls-1" d="M269.61,4.27c.34-.32.66-.65,1-1s.66-.64,1-.95a7.51,7.51,0,0,1,1.25-.93l.33-.18a.58.58,0,0,0-.13-.11c-.1-.06-.2-.13-.3-.18a4.26,4.26,0,0,0-2.51-.39h0a5.18,5.18,0,0,0-2.61,1.25c-.87.8-1.74,1.6-2.61,2.42-.68.64-1.34,1.3-2,1.94a6.81,6.81,0,0,1-1.67,1.2s0,0,0,.06a2.27,2.27,0,0,0,.25.18,4.07,4.07,0,0,0,1.95.53,5,5,0,0,0,3.33-1.28C267.76,6,268.69,5.14,269.61,4.27Z"/><path class="cls-1" d="M218.32,6.84c1.16-1.09,2.33-2.17,3.48-3.28a12.38,12.38,0,0,1,2.86-2.32,1.62,1.62,0,0,0-.23-.18,4.14,4.14,0,0,0-2.82-.48A5.56,5.56,0,0,0,218.94,2l-1.86,1.73V3.5l-.57.54c-.71.69-1.42,1.39-2.15,2.07a6.88,6.88,0,0,1-1.75,1.27.59.59,0,0,1-.05.08l.09,0c.1.06.18.12.28.17a4.11,4.11,0,0,0,3.15.29l.24-.09v.07A4.8,4.8,0,0,0,218.32,6.84Z"/><path class="cls-1" d="M275.72,3.56a12.38,12.38,0,0,1,2.86-2.32,1.62,1.62,0,0,0-.23-.18,4.14,4.14,0,0,0-2.82-.48A5.56,5.56,0,0,0,272.86,2L271.19,3.5h0l-.09.08-.68.64-.18.12v.07c-.59.57-1.17,1.14-1.77,1.7a7.06,7.06,0,0,1-1.75,1.27l-.05.08.09,0a2.61,2.61,0,0,0,.28.17,4.09,4.09,0,0,0,3.14.29l.14,0a4.73,4.73,0,0,0,.66-.25l.21-.07v0a4.4,4.4,0,0,0,1.05-.73C273.4,5.75,274.57,4.67,275.72,3.56Z"/><path class="cls-1" d="M243.57,3.35a11.67,11.67,0,0,1,2.63-2.11s0-.05-.06-.06a1,1,0,0,0-.2-.14,4.15,4.15,0,0,0-2.1-.53,5,5,0,0,0-3.07,1.21c-1.33,1.13-2.59,2.37-3.84,3.6a11.17,11.17,0,0,1-2.63,2.09s0,.06.06.07l.12.09a4,4,0,0,0,2.35.57,5.11,5.11,0,0,0,3.09-1.34Q241.75,5.09,243.57,3.35Z"/><path class="cls-1" d="M238.16,3.36a17,17,0,0,1,1.74-1.55c.28-.2.59-.39.9-.59a1,1,0,0,0-.24-.17,4.13,4.13,0,0,0-2.12-.54,5.05,5.05,0,0,0-3,1.19c-1.34,1.13-2.58,2.36-3.83,3.58a11.22,11.22,0,0,1-2.68,2.14,1.5,1.5,0,0,0,.23.17,4,4,0,0,0,2.27.55,5.1,5.1,0,0,0,3-1.23C235.7,5.78,236.94,4.57,238.16,3.36Z"/><path class="cls-1" d="M227.38,3.35A11.71,11.71,0,0,1,230,1.23l-.21-.15a4,4,0,0,0-2.53-.54,5,5,0,0,0-2.81,1.27c-1,.92-2,1.86-3,2.79-.62.58-1.22,1.18-1.85,1.75a5.81,5.81,0,0,1-1.47,1s0,0,0,.06.11.09.18.13a4,4,0,0,0,2.35.57,5.09,5.09,0,0,0,3.06-1.32C224.94,5.67,226.17,4.52,227.38,3.35Z"/><path class="cls-1" d="M232.81,3.32a10.88,10.88,0,0,1,2.62-2.08c-.1-.07-.17-.14-.26-.19a4.11,4.11,0,0,0-2.79-.47A5.76,5.76,0,0,0,229.68,2c-1.32,1.2-2.61,2.44-3.88,3.69a9.38,9.38,0,0,1-2.26,1.75s0,0,0,0a.05.05,0,0,0,0,0,1.33,1.33,0,0,0,.19.14,4.2,4.2,0,0,0,1.95.54A5,5,0,0,0,229,6.9C230.33,5.76,231.57,4.54,232.81,3.32Z"/><path class="cls-1" d="M249,3.37a11.22,11.22,0,0,1,2.68-2.14,2,2,0,0,0-.24-.16,4.07,4.07,0,0,0-2.48-.54,5.09,5.09,0,0,0-2.82,1.26c-1,.91-2,1.84-3,2.77-.58.55-1.15,1.12-1.74,1.66a6.4,6.4,0,0,1-1.62,1.16l0,0,.09.08a.91.91,0,0,0,.16.11,4.27,4.27,0,0,0,1.93.53,5,5,0,0,0,3.31-1.25C246.53,5.78,247.75,4.58,249,3.37Z"/><path class="cls-1" d="M264.3,4.21c.57-.54,1.12-1.1,1.69-1.63a7.59,7.59,0,0,1,1.8-1.32.18.18,0,0,1,0-.05,2.75,2.75,0,0,0-.28-.19c-.2-.09-.4-.19-.6-.26a3.83,3.83,0,0,0-1.83-.23,5.24,5.24,0,0,0-2.83,1.3c-.87.78-1.73,1.58-2.58,2.38-.68.64-1.34,1.3-2,2a8.47,8.47,0,0,1-1.3,1c-.14.09-.29.16-.46.26l.11.09.15.1a4.13,4.13,0,0,0,1.94.54,4.94,4.94,0,0,0,3.28-1.22C262.38,6.05,263.33,5.12,264.3,4.21Z"/><path class="cls-1" d="M259.54,3.6l.79-.79a8.92,8.92,0,0,1,2.11-1.57,1.71,1.71,0,0,0-.25-.18,5.19,5.19,0,0,0-.68-.3,3.73,3.73,0,0,0-1.87-.22,5.24,5.24,0,0,0-2.8,1.31c-1.14,1-2.28,2.11-3.4,3.18a12.67,12.67,0,0,1-2.94,2.39,1.75,1.75,0,0,0,.26.18,4,4,0,0,0,2.68.49,5.3,5.3,0,0,0,2.75-1.33Z"/><path class="cls-1" d="M254.82,2.93A9,9,0,0,1,257,1.27s0,0,0-.06a2.53,2.53,0,0,0-.27-.18c-.21-.1-.42-.2-.64-.28a3.85,3.85,0,0,0-1.84-.21,5.36,5.36,0,0,0-2.82,1.3c-1.36,1.2-2.67,2.46-4,3.73a9.07,9.07,0,0,1-2.33,1.81.16.16,0,0,0,0,.06,2.49,2.49,0,0,0,.24.17,4.13,4.13,0,0,0,2,.54A5.14,5.14,0,0,0,250.46,7c.25-.2.48-.41.71-.62Z"/></g></g></svg>