<svg xmlns="http://www.w3.org/2000/svg" viewBox="0 0 49.57 47.65"><defs><style>.cls-1{fill:#08352d;}</style></defs><title>Asset 52</title><g id="Layer_2" data-name="Layer 2"><g id="Layer_1-2" data-name="Layer 1"><path class="cls-1" d="M28.56,0c1,.68,2,1.37,3,2,.11.07.37,0,.52-.11.78-.48,1.55-1,2.33-1.49a1.32,1.32,0,0,1,1.93.24l2.35,2.51A1.23,1.23,0,0,1,38.83,5c-.65,1-1.27,2-2,2.89a2.82,2.82,0,0,0-.66,2.12,11.1,11.1,0,0,1,0,1.15A28.79,28.79,0,0,1,39,12.34a12.34,12.34,0,0,1,7,11.3c0,.55,0,1.1,0,1.65a1.11,1.11,0,1,1-2.22,0,32,32,0,0,0-.27-3.93,10.27,10.27,0,0,0-9.9-8.15,43.06,43.06,0,0,0-5.21.13,10.22,10.22,0,0,0-8.86,9.94c0,1.35,0,2.69,0,4,0,.47.18.59.59.76,1.64.67,3.24,1.46,4.88,2.15a41.69,41.69,0,0,0,4,1.49,3.5,3.5,0,0,0,1.76,0,4.18,4.18,0,0,1,4.44,1.63.81.81,0,0,0,1,.29c2.85-.88,5.71-1.74,8.57-2.61a3.42,3.42,0,0,1,4.7,2.94c0,.05.07.1.1.15v.53c0,.22-.1.45-.16.68A4,4,0,0,1,47.51,38c-3.89,2.32-7.74,4.71-11.65,7a41.62,41.62,0,0,1-4.81,2.3,5.49,5.49,0,0,1-4.37-.09c-3.29-1.35-6.54-2.8-9.84-4.13a3.11,3.11,0,0,0-2-.09c-1.65.59-3.23,1.36-4.82,2.1-1.06.5-2.07,1.08-3.11,1.6a2.43,2.43,0,0,1-3.63-1.5Q1.69,40.2.17,35.25A2.51,2.51,0,0,1,2,31.81c4.1-1.24,8.19-2.5,12.31-3.69a24.67,24.67,0,0,1,2.92-.49c0-.23,0-.51,0-.79a37.65,37.65,0,0,1,.3-5.84c1.05-5,4.19-8.24,9.14-9.67l.52-.15a4.41,4.41,0,0,0-.77-3.59,29.57,29.57,0,0,1-1.91-2.77,1.15,1.15,0,0,1,.14-1.65l3-3.17ZM5.48,44.74l1.93-1c1.9-.94,3.76-1.93,5.7-2.77a5.63,5.63,0,0,1,4.5-.15q3.93,1.62,7.81,3.35c3.45,1.53,4,1.62,7.32-.18s6.58-3.82,9.85-5.76c1.33-.78,2.64-1.59,3.95-2.4a1.93,1.93,0,0,0,.7-2.22c-.27-.52-1-.7-1.82-.44L37.16,35.7c-.63.19-1.27.31-1.44,1.12,0,.23-.3.43-.48.62A10,10,0,0,1,29.84,40a7.41,7.41,0,0,1-2.93,0c-1.62-.4-3.18-1-4.76-1.57a1.19,1.19,0,0,1-.85-1.55c.22-.62.87-.85,1.66-.58,1.29.44,2.56.93,3.87,1.32,2.58.76,4.78-.18,6.83-1.66a.63.63,0,0,0,.16-.88,2.25,2.25,0,0,0-2.31-1.14,7.5,7.5,0,0,1-4.72-.44c-1.3-.58-2.57-1.24-3.88-1.82a26.49,26.49,0,0,0-3.78-1.49,8.91,8.91,0,0,0-4.82.34C10.42,31.62,6.56,32.81,2.69,34c-.49.14-.47.38-.34.78,1,3.11,1.92,6.22,2.88,9.33C5.29,44.28,5.38,44.48,5.48,44.74ZM26.84,4.15c.5.75,1,1.49,1.48,2.2a.93.93,0,0,0,.6.27c1.89,0,3.78,0,5.67,0a.81.81,0,0,0,.54-.14c.54-.74,1-1.5,1.54-2.22L35.16,2.67c-.85.54-1.67,1-2.43,1.58a1.41,1.41,0,0,1-1.81,0c-.83-.56-1.68-1.09-2.51-1.63Zm2.81,4.74V11h4.27V8.89Z"/><path class="cls-1" d="M30.91,28.67a2.72,2.72,0,0,1-2.76-1.16,3.84,3.84,0,0,1-.49-1.6,1,1,0,0,1,.91-1.09,1,1,0,0,1,1.24.82c.09.72.49.84,1.09.81s1.36,0,2.05,0a.65.65,0,0,0,.74-.72c0-2.1.19-2-1.84-2-.53,0-1.06,0-1.59,0A2.69,2.69,0,0,1,27.64,21c0-.53,0-1.06,0-1.59a2.69,2.69,0,0,1,2.87-2.9l.43,0c0-.36,0-.72,0-1.09a1.06,1.06,0,0,1,1-1.08,1.08,1.08,0,0,1,1.18,1,10.79,10.79,0,0,1,0,1.14l.73.17a2.71,2.71,0,0,1,2,2.55,1.11,1.11,0,0,1-1,1.22,1.07,1.07,0,0,1-1.23-.93.75.75,0,0,0-.9-.72c-.73,0-1.45,0-2.18,0-.57,0-.81.23-.77.8a10.46,10.46,0,0,1,0,1.12c0,.61.29.83.84.83h2.58a2.59,2.59,0,0,1,2.55,2.15,11.23,11.23,0,0,1,.11,1.84,2.88,2.88,0,0,1-2.75,3.22c-.08.86.25,2.13-1.16,2.12S31,29.6,30.91,28.67Z"/><path class="cls-1" d="M46.14,28.65A1.07,1.07,0,0,1,45,29.76a1.11,1.11,0,0,1-1.1-1.13,1,1,0,0,1,1.17-1A1,1,0,0,1,46.14,28.65Z"/></g></g></svg>