<svg xmlns="http://www.w3.org/2000/svg" viewBox="0 0 20.74 12.63"><defs><style>.cls-1{fill:#d2af66;}</style></defs><title>Asset 50</title><g id="Layer_2" data-name="Layer 2"><g id="Layer_1-2" data-name="Layer 1"><path class="cls-1" d="M13.52,4.73V1.64A1.58,1.58,0,0,1,15.63.08a1.47,1.47,0,0,1,1,1.32c0,.25,0,.5,0,.77.17,0,.3-.08.43-.1A1.51,1.51,0,0,1,18.94,3.6V4.74a1.57,1.57,0,0,1,1.46.57,1.76,1.76,0,0,1,.34,1.15c-.06.89-.55,1.28-1.8,1.45V8.4a8.92,8.92,0,0,1,0,.9,1.42,1.42,0,0,1-1.23,1.26,2,2,0,0,1-1-.08c0,.25,0,.48,0,.7a1.48,1.48,0,0,1-1.49,1.44A1.51,1.51,0,0,1,13.52,11V7.9H7.21V11a1.57,1.57,0,0,1-2.09,1.55,1.52,1.52,0,0,1-1.06-1.43c0-.21,0-.43,0-.66l-.35.09A1.52,1.52,0,0,1,1.8,9c0-.36,0-.71,0-1.08A1.77,1.77,0,0,1,.29,7.29a1.49,1.49,0,0,1-.29-1A1.64,1.64,0,0,1,.53,5.09a1.71,1.71,0,0,1,1.26-.35c0-.08,0-.15,0-.22a10.61,10.61,0,0,1,0-1.26A1.54,1.54,0,0,1,3.65,2.05l.41.09c0-.24,0-.47,0-.7A1.37,1.37,0,0,1,4.72.28,1.76,1.76,0,0,1,6.1.06,1.52,1.52,0,0,1,7.21,1.59V4.73Zm.91,1.58V8.78c0,.74,0,1.49,0,2.24a.64.64,0,0,0,.65.7c.46,0,.7-.27.7-.77V1.71a1,1,0,0,0,0-.24.67.67,0,0,0-1.33.14ZM5,6.3V9.64c0,.47,0,.95,0,1.42a.62.62,0,0,0,.67.66A.64.64,0,0,0,6.31,11V1.66a.86.86,0,0,0,0-.16A.64.64,0,0,0,5.82.93.67.67,0,0,0,5,1.59Zm-.91,0h0V3.83a2.56,2.56,0,0,0,0-.39A.6.6,0,0,0,3.62,3a.69.69,0,0,0-.92.7V9a.68.68,0,0,0,.41.7A.67.67,0,0,0,4.05,9C4.06,8.13,4.05,7.24,4.05,6.34Zm12.64,0h0v.54c0,.74,0,1.49,0,2.23a.6.6,0,0,0,.5.62A.66.66,0,0,0,18,9V3.6a.64.64,0,0,0-.66-.66.63.63,0,0,0-.68.66ZM7.23,5.65V7h6.28V5.65ZM18.94,7a.75.75,0,0,0,.81-.31.68.68,0,0,0-.06-.78.7.7,0,0,0-.75-.23ZM1.79,5.65A.73.73,0,0,0,1,5.93a.75.75,0,0,0,0,.8A.79.79,0,0,0,1.79,7Z"/></g></g></svg>