<svg xmlns="http://www.w3.org/2000/svg" viewBox="0 0 42.58 42.5"><defs><style>.cls-1{fill:none;stroke:#fff;stroke-miterlimit:10;}.cls-2{fill:#fafafa;}</style></defs><title>Asset 66</title><g id="Layer_2" data-name="Layer 2"><g id="Layer_1-2" data-name="Layer 1"><path class="cls-1" d="M1.51,27.69a4,4,0,0,0,.4,1.11,3.23,3.23,0,0,0,.4.91,9,9,0,0,0,1,2,2.06,2.06,0,0,0,.68,1,2.92,2.92,0,0,0,.7,1A4.67,4.67,0,0,0,6,35.32a.86.86,0,0,0,.42.48,7.78,7.78,0,0,0,1.63,1.51c.24.2.42.49.77.54a3,3,0,0,0,1.25.91,6.37,6.37,0,0,0,2,1.11,5.88,5.88,0,0,0,2,.9,7.27,7.27,0,0,0,2,.62,6.18,6.18,0,0,0,2,.41,6.92,6.92,0,0,0,2,.17h2a5.36,5.36,0,0,0,2-.19,6.42,6.42,0,0,0,2-.4,7.49,7.49,0,0,0,2-.61,13.25,13.25,0,0,0,4.07-2,2.64,2.64,0,0,0,1.25-.91,1.24,1.24,0,0,0,.79-.59A4.93,4.93,0,0,0,36,35.82c.26-.06.34-.31.49-.49a4.26,4.26,0,0,0,1.32-1.54,2.24,2.24,0,0,0,.71-1,2,2,0,0,0,.7-1,7.61,7.61,0,0,0,1-2,2.35,2.35,0,0,0,.37-.82,3.49,3.49,0,0,0,.42-1.21,9,9,0,0,0,.57-2,15.17,15.17,0,0,0,.32-2,9.85,9.85,0,0,0,.12-2,17.07,17.07,0,0,0,0-2,11.78,11.78,0,0,0-.28-2,7.9,7.9,0,0,0-.48-2,5.53,5.53,0,0,0-.62-1.82l-.08-.22a7.5,7.5,0,0,0-.93-2,5.81,5.81,0,0,0-1-1.73l-.29-.42a17.3,17.3,0,0,0-3.57-3.92,8.09,8.09,0,0,0-2.21-1.55c-.19-.32-.54-.41-.83-.59a4.17,4.17,0,0,0-1.2-.63,8.75,8.75,0,0,0-2.14-.9,13.33,13.33,0,0,0-4.06-1,7.35,7.35,0,0,0-2-.17h-2a8.72,8.72,0,0,0-2,.14,17.31,17.31,0,0,0-4,1.08,7.93,7.93,0,0,0-2,.82,4,4,0,0,0-1.36.79,1.18,1.18,0,0,0-.67.39c-.16.09-.33.16-.48.26A19.36,19.36,0,0,0,6,7.13,10.3,10.3,0,0,0,4.3,9.3a1.18,1.18,0,0,0-.39.52A6,6,0,0,0,3,11.46a7.33,7.33,0,0,0-1,2l-.1.31a5.28,5.28,0,0,0-.61,1.72,8.73,8.73,0,0,0-.47,2,6.34,6.34,0,0,0-.24,2,19.28,19.28,0,0,0-.06,2,12.74,12.74,0,0,0,.09,2.05,6.61,6.61,0,0,0,.36,2A8.93,8.93,0,0,0,1.51,27.69Z"/><path class="cls-2" d="M25.93,12.9c.67,0,1.34,0,2,0,.39,0,.48-.12.47-.48,0-1.48,0-3,0-4.43,0-.38-.11-.5-.48-.49H24.06a6.1,6.1,0,0,0-2.82.64,6.66,6.66,0,0,0-3.51,5.32,29,29,0,0,0-.1,4.27c0,.41-.11.56-.53.55-1.11,0-2.22,0-3.33,0-.35,0-.49.1-.48.48,0,1.48,0,3,0,4.43,0,.42.14.5.52.49,1.1,0,2.21,0,3.32,0,.41,0,.52.13.5.51s0,1,0,1.51c0,3.52,0,7,0,10.57,0,.36.2.36.45.36h4.28c.66,0,.66,0,.66-.65,0-3.91,0-7.82,0-11.73,0-.43.1-.59.56-.58,1.13,0,2.25,0,3.38,0,.2,0,.4,0,.45-.27.31-1.59.63-3.19.95-4.78.05-.26,0-.34-.28-.34l-3.07,0c-.52,0-1,0-1.55,0-.29,0-.44-.08-.43-.4,0-.7,0-1.41,0-2.11A2.75,2.75,0,0,1,25.93,12.9Z"/></g></g></svg>