<svg xmlns="http://www.w3.org/2000/svg" viewBox="0 0 42.58 42.5"><defs><style>.cls-1{fill:#fafafa;}.cls-2{fill:none;stroke:#fff;stroke-miterlimit:10;}</style></defs><title>Asset 65</title><g id="Layer_2" data-name="Layer 2"><g id="Layer_1-2" data-name="Layer 1"><path class="cls-1" d="M16.08,27.34c-.85-.33-1.66-.62-2.46-.95s-1-1-1-1.94a.64.64,0,0,1,.46-.56l3.39-1.57.26-.12a15.74,15.74,0,0,1-2.07-1,5.39,5.39,0,0,1-2.5-5.11,7.52,7.52,0,0,1,6.33-7.27,12.49,12.49,0,0,1,3.86,0C23.17,9,24,9,24.85,9c1,0,2,0,3.07,0,.13,0,.35-.1.34.16s-.07.42-.34.46l-2,.29-1.33.21A5.75,5.75,0,0,1,26.17,13a7.17,7.17,0,0,1-5.28,8.82c-.42.12-.86.2-1.3.29a14.4,14.4,0,0,0-3.45,1.26,3.34,3.34,0,0,0-.7.48c-.42.38-.4.76.12,1a8.5,8.5,0,0,0,1.77.57c1.69.32,3.4.54,5.09.88a18.83,18.83,0,0,1,3.21.88c2.38.93,2.87,3,2.11,5.07a5.88,5.88,0,0,1-2.74,3,12.32,12.32,0,0,1-5.33,1.55,15.16,15.16,0,0,1-5.24-.37,9.42,9.42,0,0,1-2.23-.91,3.11,3.11,0,0,1-.39-5.32c1.18-.93,2.47-1.71,3.71-2.56C15.7,27.56,15.89,27.45,16.08,27.34ZM15.3,15.8a7.14,7.14,0,0,0,.86,3.73,3.38,3.38,0,0,0,3.8,1.8A3.67,3.67,0,0,0,22.57,19a10,10,0,0,0,.62-4.76,7.22,7.22,0,0,0-.61-2.55,3.29,3.29,0,0,0-2.52-2.18,3.47,3.47,0,0,0-3.69,1.83A8.55,8.55,0,0,0,15.3,15.8Zm4.08,20.33a16.21,16.21,0,0,0,1.81-.29,5.26,5.26,0,0,0,3.26-2.11,3,3,0,0,0-1-4.39,7.46,7.46,0,0,0-1-.47,28.25,28.25,0,0,0-4.81-1.13,1.38,1.38,0,0,0-1.09.12,7.22,7.22,0,0,0-2.34,2.39,3.59,3.59,0,0,0,1.89,5.35A8.94,8.94,0,0,0,19.38,36.13Z"/><path class="cls-2" d="M1.51,27.69a4,4,0,0,0,.4,1.11,3.23,3.23,0,0,0,.4.91,9,9,0,0,0,1,2,2.06,2.06,0,0,0,.68,1,2.92,2.92,0,0,0,.7,1A4.67,4.67,0,0,0,6,35.32a.86.86,0,0,0,.42.48,7.78,7.78,0,0,0,1.63,1.51c.24.2.42.49.77.54a3,3,0,0,0,1.25.91,6.37,6.37,0,0,0,2,1.11,5.88,5.88,0,0,0,2,.9,7.27,7.27,0,0,0,2,.62,6.18,6.18,0,0,0,2,.41,6.92,6.92,0,0,0,2,.17h2a5.36,5.36,0,0,0,2-.19,6.42,6.42,0,0,0,2-.4,7.49,7.49,0,0,0,2-.61,13.25,13.25,0,0,0,4.07-2,2.64,2.64,0,0,0,1.25-.91,1.24,1.24,0,0,0,.79-.59A4.93,4.93,0,0,0,36,35.82c.26-.06.34-.31.49-.49a4.26,4.26,0,0,0,1.32-1.54,2.24,2.24,0,0,0,.71-1,2,2,0,0,0,.7-1,7.61,7.61,0,0,0,1-2,2.35,2.35,0,0,0,.37-.82,3.49,3.49,0,0,0,.42-1.21,9,9,0,0,0,.57-2,15.17,15.17,0,0,0,.32-2,9.85,9.85,0,0,0,.12-2,17.07,17.07,0,0,0,0-2,11.78,11.78,0,0,0-.28-2,7.9,7.9,0,0,0-.48-2,5.53,5.53,0,0,0-.62-1.82l-.08-.22a7.5,7.5,0,0,0-.93-2,5.81,5.81,0,0,0-1-1.73l-.29-.42a17.3,17.3,0,0,0-3.57-3.92,8.09,8.09,0,0,0-2.21-1.55c-.19-.32-.54-.41-.83-.59a4.17,4.17,0,0,0-1.2-.63,8.75,8.75,0,0,0-2.14-.9,13.33,13.33,0,0,0-4.06-1,7.35,7.35,0,0,0-2-.17h-2a8.72,8.72,0,0,0-2,.14,17.31,17.31,0,0,0-4,1.08,7.93,7.93,0,0,0-2,.82,4,4,0,0,0-1.36.79,1.18,1.18,0,0,0-.67.39c-.16.09-.33.16-.48.26A19.36,19.36,0,0,0,6,7.13,10.3,10.3,0,0,0,4.3,9.3a1.18,1.18,0,0,0-.39.52A6,6,0,0,0,3,11.46a7.33,7.33,0,0,0-1,2l-.1.31a5.28,5.28,0,0,0-.61,1.72,8.73,8.73,0,0,0-.47,2,6.34,6.34,0,0,0-.24,2,19.28,19.28,0,0,0-.06,2,12.74,12.74,0,0,0,.09,2.05,6.61,6.61,0,0,0,.36,2A8.93,8.93,0,0,0,1.51,27.69Z"/><path class="cls-1" d="M34.46,13.49H35c0,.58,0,1.16,0,1.74-.4,0-.8.06-1.2.07a12,12,0,0,1-1.8-.07c-.34,0-.48.1-.47.46,0,.62,0,1.24,0,1.86-.05,1.08-.05,1.08-1.11,1.13-.71,0-.71,0-.71-.74,0-.13,0-.26,0-.39v-2c0-.3-.26-.21-.43-.21-.84,0-1.68-.07-2.52-.08-.3,0-.42-.09-.4-.41s0-.87,0-1.31l2,0h1.22c.29-.05.18-.29.18-.45,0-.7,0-1.4-.06-2.1s0-.81.69-1a4.73,4.73,0,0,0,.65,0c.35,0,.48.09.46.45s0,.7,0,1.05,0,.77,0,1.16c0,.91,0,.91.92.87Z"/></g></g></svg>