<svg xmlns="http://www.w3.org/2000/svg" viewBox="0 0 164.18 164.18"><defs><style>.cls-1{fill:#d2af66;}.cls-2{fill:none;stroke:#d2af66;stroke-miterlimit:10;stroke-dasharray:12;}</style></defs><title>Asset 61</title><g id="Layer_2" data-name="Layer 2"><g id="Layer_1-2" data-name="Layer 1"><path class="cls-1" d="M81.92,135.88c-11.93,0-23.86-.21-35.78.07-10.2.23-14.49-12.22-10.94-18.24,1.6-2.71,2.72-5.7,4.3-8.42a12.36,12.36,0,0,1,8.8-6q8.49-1.62,17-3.33a15.92,15.92,0,0,0,3-.91A4.17,4.17,0,0,0,71,95.76c.34-2.24-.3-4.4-.63-6.58-.07-.46-.53-.69-.87-1a17.57,17.57,0,0,1-2.63-2.29c-1.83-2.32-4.35-3.27-7-4.07C56.87,81,54,79.9,51,79a1.73,1.73,0,0,1-1.37-1.78c-.69-9.24-1.12-18.49-1-27.76a76,76,0,0,1,.7-9.29c.92-6.46,4.5-11.18,9.94-14.43a42.16,42.16,0,0,1,28.8-5.64c9.3,1.48,15.63,7.45,20.32,15.3,4.35,7.26,5.85,15.24,5.93,23.59a99.73,99.73,0,0,1-2.4,22.12c-.27,1.29-.8,1.74-2.12,1.66-2.76-.17-5.54-.15-8.31-.31a3,3,0,0,0-2.61,1.07,26.06,26.06,0,0,1-3.71,3.57,5.22,5.22,0,0,0-2.23,4c-.08,1-.31,2-.48,3-.57,3.34.6,5.2,3.92,6,2.81.63,5.66,1.1,8.49,1.64,3.66.68,7.32,1.32,11,2a12.08,12.08,0,0,1,8.9,6.83c1.16,2.4,2.43,4.73,3.72,7.06,4.37,7.91-1.72,18.29-10.76,18.3Zm-40.83-24c1.65.77,1.12,1.52.79,2.2-1,1.93-2,3.82-2.94,5.78-2.76,5.84.92,11.71,7.29,11.71h71.2a13,13,0,0,0,2.65-.17c4.64-1,7.12-7,4.76-11.54a71.25,71.25,0,0,1-3.67-6.89,7.48,7.48,0,0,0-6-5.08c-5.88-1.1-11.78-2.12-17.64-3.37a6.68,6.68,0,0,0-5.55,1c-3.57,2.34-7.43,4-11.89,3.4-3.83-.51-6.94-2.52-10-4.73-.52-.38-.95-.83-1.76-.66-6.73,1.4-13.47,2.72-20.2,4.1a7,7,0,0,0-4.51,2.91A2.56,2.56,0,0,1,41.09,111.91ZM63.65,64.32c.22,4,.43,8.06.68,12.09a2.53,2.53,0,0,0,.5,1.21A30.92,30.92,0,0,0,76.45,87.83a11.44,11.44,0,0,0,10.71-.1,30.67,30.67,0,0,0,8.65-6.65c2.63-2.82,4.64-5.86,4.86-9.91.11-2.2.75-4.36,1.07-6.56.36-2.46,1.74-5.14.89-7.3s-3.3-3.63-5-5.46a1.58,1.58,0,0,0-2.3-.29,13.24,13.24,0,0,1-5.06,1.53c-5.1.6-9.92-.61-14.65-2.29-1.5-.53-2-.15-2.41,1.28-2.16,6.77-2.52,13.71-2.31,20.73,0,.91,0,1.83,0,2.74C67.83,72.18,65.8,68.29,63.65,64.32Zm18,40.74c3.18,0,5.65-1.47,8.09-3,.54-.35.51-.77.16-1.26a9.27,9.27,0,0,1-1.65-7.7c.24-1-.1-1.34-1.1-.89a12.71,12.71,0,0,1-10.62.14c-.88-.37-1.39-.27-1.27.85A9.44,9.44,0,0,1,73.39,100c-.38.52-.53.94.08,1.4C76,103.28,78.53,105,81.69,105.06Z"/><circle class="cls-2" cx="82.09" cy="82.09" r="81.59"/></g></g></svg>