<svg xmlns="http://www.w3.org/2000/svg" viewBox="0 0 164.18 164.18"><defs><style>.cls-1{fill:#d2af66;stroke:#04352d;stroke-width:2px;}.cls-1,.cls-2{stroke-miterlimit:10;}.cls-2{fill:none;stroke:#d2af66;stroke-dasharray:12;}</style></defs><title>Asset 60</title><g id="Layer_2" data-name="Layer 2"><g id="Layer_1-2" data-name="Layer 1"><path class="cls-1" d="M81.81,144.4c-5.64-1.45-11.24-3.12-16.94-4.24-2.91-.57-6.07.19-9-.26-11.71-1.78-19.7-8.47-23.13-19.7S32,98.59,41,90.65s19-9.3,30-5c1.45.57,2.91,1.12,4.8,1.85V81.25c-7.44-1.55-15.34-2.11-22.19-7.33,8.47-10.87,7-24.4,10.59-36.54A46.58,46.58,0,0,1,66.43,31a24.61,24.61,0,0,1,34.49-11.23c6.12,3.35,8.94,9.38,10.76,15.68,1.58,5.49,2.29,11.23,3.45,16.85a98.7,98.7,0,0,0,2.62,11.37c1.19,3.56,3.07,6.88,5,11.13-3.62,1.47-7.07,3.18-10.71,4.27s-7.4,1.54-11.3,2.31v5.51c5,.58,8.53,3.39,10.77,8a2.4,2.4,0,0,0,1.17,1.1c7.14,2.74,14.17,5.88,21.5,8,4.81,1.36,7.34,4.33,9.14,8.38.34.77-.35,2.26-1,3.15Q125.89,139.51,97,143.8a14.56,14.56,0,0,0-2.12.6Zm2.91-57.13-2.92,6c10.27,15.31,8.51,29.2-4.89,41.8,23,4.63,45.72-5.36,57.64-22.3a9.42,9.42,0,0,0-1.37-.78c-6.8-2.44-13.57-5-20.42-7.25a16.93,16.93,0,0,1-9-7.06c-.67-1-1.8-2.22-2.85-2.37-4.9-.69-7.91-3.22-8.71-8Zm8.07-52.69a51.42,51.42,0,0,1-20.13,9.11c-2,.45-2.55,1.47-2.61,3.39a49.18,49.18,0,0,0,5.28,23.5c2.63,5.33,6.76,8.68,12.9,8.91S98.32,76.07,101,71a47,47,0,0,0,5.43-25,3.93,3.93,0,0,0-1.4-2.62C101.18,40.46,97.19,37.71,92.79,34.58Zm-33,97.53A20.27,20.27,0,1,0,39.5,111.87,20.17,20.17,0,0,0,59.77,132.11Z"/><path class="cls-1" d="M55.56,116c-3.15-.52-7.75,1-7.75-4.15s4.53-3.73,7.75-4.15c.52-3.27-.79-8,4.36-7.95,5,0,3.6,4.71,4.25,7.83,3.06.66,7.71-.88,7.74,4.22s-4.6,3.66-7.73,4.29c-.69,3.15.72,8-4.53,7.82C54.79,123.75,56.06,119.2,55.56,116Z"/><circle class="cls-2" cx="82.09" cy="82.09" r="81.59"/></g></g></svg>