<svg xmlns="http://www.w3.org/2000/svg" viewBox="0 0 38.97 41.4"><defs><style>.cls-1{fill:#d2af66;}</style></defs><title>Asset 54</title><g id="Layer_2" data-name="Layer 2"><g id="Layer_1-2" data-name="Layer 1"><path class="cls-1" d="M36.73,14.23h-7a1.87,1.87,0,0,1-1.41-.64,1.85,1.85,0,0,1-.45-1.48,1.93,1.93,0,0,1,1.75-1.64l6.89-.69A2.25,2.25,0,0,1,39,12,2.24,2.24,0,0,1,36.73,14.23Zm0-3.06h-.09l-6.89.69a.52.52,0,0,0-.49.41.47.47,0,0,0,.11.38.46.46,0,0,0,.35.16h7a.83.83,0,0,0,.83-.82.84.84,0,0,0-.27-.61A.82.82,0,0,0,36.74,11.17Z"/><path class="cls-1" d="M36,41.4H.71a.7.7,0,0,1-.71-.7A.71.71,0,0,1,.71,40H36a.7.7,0,0,1,.71.7A.71.71,0,0,1,36,41.4Z"/><path class="cls-1" d="M22.56,23.72a.58.58,0,0,1-.26,0c-.6-.23-1.22-.45-1.87-.65s-2.46-.82-5.8-2a.71.71,0,1,1,.47-1.33c3.28,1.15,5.26,1.84,5.74,2,.68.21,1.35.44,2,.69a.72.72,0,0,1,.4.92A.7.7,0,0,1,22.56,23.72Z"/><path class="cls-1" d="M24.07,37.45a23.5,23.5,0,0,1-9-2c-1-.47-2.3-1.18-3.95-2.1A12.85,12.85,0,0,1,4.51,21.39a3.93,3.93,0,0,1,1.76-3.11,4,4,0,0,1,3.54-.46s2.6.93,5.29,1.87A.71.71,0,0,1,14.63,21L9.34,19.16a2.58,2.58,0,0,0-2.29.29,2.55,2.55,0,0,0-1.13,2,11.45,11.45,0,0,0,5.86,10.62c1.63.91,2.92,1.6,3.85,2.05A21.22,21.22,0,0,0,24.87,36c2.54-.15,4.33-1,4.92-2.4a4.79,4.79,0,0,0-.14-3.72c-1-2.51-3.72-4.77-7.35-6.22a.7.7,0,1,1,.52-1.31c4,1.61,6.93,4.09,8.13,7a6.19,6.19,0,0,1,.14,4.82c-.82,1.91-3,3.07-6.14,3.25C24.66,37.44,24.37,37.45,24.07,37.45Z"/><path class="cls-1" d="M27.38,26.53a.71.71,0,0,1-.46-.17,14.67,14.67,0,0,0-2.42-1.65.7.7,0,0,1-.34-.43.75.75,0,0,1,.07-.55L30.5,13.16a.68.68,0,0,1,.6-.35h3.22a.73.73,0,0,1,.61.35.72.72,0,0,1,0,.71L28,26.17a.67.67,0,0,1-.49.34Zm-1.57-2.69c.48.29.93.59,1.36.91l5.94-10.53h-1.6Z"/><path class="cls-1" d="M21.75,34.1a4.39,4.39,0,1,1,4.39-4.39A4.4,4.4,0,0,1,21.75,34.1Zm0-7.37a3,3,0,1,0,3,3,3,3,0,0,0-3-3Z"/><path class="cls-1" d="M12.74,20.31a.67.67,0,0,1-.24,0L9.34,19.16a2.46,2.46,0,0,0-1-.14.69.69,0,0,1-.72-.55l-3-13.36A2.3,2.3,0,0,1,6,2.47a.7.7,0,1,1,.54,1.3A.89.89,0,0,0,6,4.8L8.91,17.62a4.85,4.85,0,0,1,.9.2l1.88.67L7.92,4.88A.71.71,0,1,1,9.28,4.5l4.14,14.92a.71.71,0,0,1-.2.7A.7.7,0,0,1,12.74,20.31Z"/><path class="cls-1" d="M11,6l-.19,0L8.58,5.41A5.27,5.27,0,0,1,5.43,3.08l-1.23-2a.72.72,0,0,1,.23-1,.7.7,0,0,1,1,.24l1.24,2a3.86,3.86,0,0,0,2.3,1.71l2.28.6A.71.71,0,0,1,11,6Z"/><path class="cls-1" d="M14.87,25.19a.74.74,0,0,1-.25-.05L8.55,22.9a.69.69,0,0,1-.42-.9A.7.7,0,0,1,9,21.58l6.07,2.24a.71.71,0,0,1,.42.91A.72.72,0,0,1,14.87,25.19Z"/><path class="cls-1" d="M24.84,41.4a.71.71,0,0,1-.71-.68l-.18-4a.72.72,0,0,1,.68-.74.7.7,0,0,1,.73.68l.18,4a.71.71,0,0,1-.67.74Z"/><path class="cls-1" d="M6.1,41.39a.83.83,0,0,1-.22,0,.72.72,0,0,1-.46-.89L8.5,30.84a.72.72,0,0,1,.89-.46.71.71,0,0,1,.45.89L6.77,40.9A.71.71,0,0,1,6.1,41.39Z"/></g></g></svg>