<svg xmlns="http://www.w3.org/2000/svg" viewBox="0 0 42.87 35.34"><defs><style>.cls-1{fill:#d2af66;}</style></defs><title>Asset 53</title><g id="Layer_2" data-name="Layer 2"><g id="Layer_1-2" data-name="Layer 1"><path class="cls-1" d="M36.7,13.86H24.63a.71.71,0,1,1,0-1.42H36.7a1.07,1.07,0,0,0,1.07-1.07V7.82a.7.7,0,0,1,.7-.71.71.71,0,0,1,.71.71v3.55A2.49,2.49,0,0,1,36.7,13.86Z"/><path class="cls-1" d="M23,35.34H9.61a1.81,1.81,0,0,1-1.8-1.8V28.23A42.52,42.52,0,0,1,2,21.84L.62,19.89a3.26,3.26,0,0,1,.15-4,3.25,3.25,0,0,1,2.92-1.23V9.35A5.12,5.12,0,0,1,8.81,4.24H19.65a5.12,5.12,0,0,1,5.12,5.11V33.54A1.81,1.81,0,0,1,23,35.34ZM3.33,16a1.93,1.93,0,0,0-1.47.73,1.88,1.88,0,0,0-.08,2.33L3.11,21A41.34,41.34,0,0,0,9,27.4a.68.68,0,0,1,.23.52v5.62a.4.4,0,0,0,.39.39H23a.39.39,0,0,0,.39-.39V9.35a3.71,3.71,0,0,0-3.71-3.7H8.81A3.71,3.71,0,0,0,5.1,9.35v6.2a.69.69,0,0,1-.31.59.72.72,0,0,1-.67.06A2,2,0,0,0,3.33,16Z"/><path class="cls-1" d="M24.08,28.62H8.51a.7.7,0,0,1-.7-.7.7.7,0,0,1,.7-.71H24.08a.7.7,0,0,1,.7.71A.7.7,0,0,1,24.08,28.62Z"/><path class="cls-1" d="M34.35,24.39H24.07a.71.71,0,0,1-.7-.71.7.7,0,0,1,.7-.7H34.35a.7.7,0,0,1,.7.7A.7.7,0,0,1,34.35,24.39Z"/><path class="cls-1" d="M18.24,18.09H6.18a2.49,2.49,0,0,1-2.49-2.48V12.05a.7.7,0,0,1,.71-.7.7.7,0,0,1,.7.7v3.56a1.07,1.07,0,0,0,1.08,1.07H18.24a.7.7,0,0,1,.71.7A.71.71,0,0,1,18.24,18.09Z"/><path class="cls-1" d="M33.26,31.11H24.08a.71.71,0,0,1-.71-.71v-21a3.71,3.71,0,0,0-3.71-3.7h-.83a.69.69,0,0,1-.51-.22.72.72,0,0,1-.2-.52A5.1,5.1,0,0,1,23.22,0H34.06a5.13,5.13,0,0,1,5.12,5.12v5.29a3.24,3.24,0,0,1,2.92,1.22,3.29,3.29,0,0,1,.16,4l-1.34,1.92A41.92,41.92,0,0,1,35.06,24V29.3A1.8,1.8,0,0,1,33.26,31.11Zm-8.48-1.42h8.48a.38.38,0,0,0,.39-.39V23.68a.7.7,0,0,1,.23-.52,41.3,41.3,0,0,0,5.9-6.42l1.32-1.89A1.93,1.93,0,0,0,38.75,12a.7.7,0,0,1-1-.65V5.12a3.71,3.71,0,0,0-3.71-3.71H23.22a3.7,3.7,0,0,0-3.6,2.83,5.13,5.13,0,0,1,5.15,5.11Z"/></g></g></svg>