<svg xmlns="http://www.w3.org/2000/svg" viewBox="0 0 34.06 38.51"><defs><style>.cls-1{fill:#d2af66;}</style></defs><title>Asset 52</title><g id="Layer_2" data-name="Layer 2"><g id="Layer_1-2" data-name="Layer 1"><path class="cls-1" d="M28.62,38.51h-13a.65.65,0,0,1-.65-.65.64.64,0,0,1,.65-.64h13a4.17,4.17,0,0,0,4.15-4.15V12.89a4.15,4.15,0,0,0-4.15-4.15.65.65,0,0,1-.39-1.16V5.69H13.63v2.4a.6.6,0,0,1-.19.45.64.64,0,0,1-.45.19,3.81,3.81,0,0,0-2.71,1.21,4.21,4.21,0,0,0-1.19,2.94v3.55a.65.65,0,0,1-1.29,0V12.88A5.53,5.53,0,0,1,9.35,9a5.21,5.21,0,0,1,3-1.55V5a.67.67,0,0,1,.18-.46A.65.65,0,0,1,13,4.4H28.87a.65.65,0,0,1,.65.64V7.52a5.45,5.45,0,0,1,4.54,5.37V33.07A5.45,5.45,0,0,1,28.62,38.51Z"/><path class="cls-1" d="M30,5.69H11.89A2,2,0,0,1,10,3.74V1.94A1.94,1.94,0,0,1,11.89,0H30a2,2,0,0,1,1.38.57A1.94,1.94,0,0,1,31.92,2v1.8A1.94,1.94,0,0,1,30,5.69ZM11.89,1.29a.65.65,0,0,0-.65.65v1.8a.66.66,0,0,0,.65.66H30a.66.66,0,0,0,.66-.65V2a.68.68,0,0,0-.19-.47A.68.68,0,0,0,30,1.29Z"/><path class="cls-1" d="M28.62,8.74H19.33a.64.64,0,0,1-.64-.64.65.65,0,0,1,.64-.65h9.29a.65.65,0,1,1,0,1.29Z"/><path class="cls-1" d="M33.42,31.29H15.66a.65.65,0,1,1,0-1.29H32.77V15.63H15.24a.55.55,0,0,0-.56.55v1.25a.65.65,0,0,1-1.29,0V16.18a1.84,1.84,0,0,1,1.85-1.84H33.42a.64.64,0,0,1,.64.65V30.65A.64.64,0,0,1,33.42,31.29Z"/><path class="cls-1" d="M29.07,19.88H17.28a.65.65,0,0,1,0-1.29H29.07a.64.64,0,0,1,.65.64A.65.65,0,0,1,29.07,19.88Z"/><path class="cls-1" d="M29.07,23.46H17.28a.65.65,0,0,1,0-1.29H29.07a.65.65,0,1,1,0,1.29Z"/><path class="cls-1" d="M29.07,27H16a.65.65,0,0,1,0-1.29H29.07a.65.65,0,0,1,.65.65A.64.64,0,0,1,29.07,27Z"/><path class="cls-1" d="M12.33,38.51H5.17a1.23,1.23,0,0,1-1.24-1.17L3.11,22.76a.66.66,0,0,1,.18-.48.63.63,0,0,1,.47-.2h10a.63.63,0,0,1,.64.68l-.82,14.57A1.25,1.25,0,0,1,12.33,38.51Zm-7.12-1.3h7.08l.78-13.85H4.44Z"/><path class="cls-1" d="M13.87,23.37H3.63a1.85,1.85,0,0,1-1.84-1.85v-.4a2.45,2.45,0,0,1,2.44-2.44h9a2.46,2.46,0,0,1,2.45,2.45v.4A1.85,1.85,0,0,1,13.87,23.37ZM4.23,20a1.16,1.16,0,0,0-1.15,1.15v.4a.56.56,0,0,0,.55.56H13.87a.56.56,0,0,0,.56-.55v-.4A1.16,1.16,0,0,0,13.27,20Z"/><path class="cls-1" d="M22,38.51H.64a.65.65,0,0,1,0-1.29H22a.65.65,0,1,1,0,1.29Z"/></g></g></svg>