<svg xmlns="http://www.w3.org/2000/svg" viewBox="0 0 44.21 41.36"><defs><style>.cls-1{fill:#d2af66;}</style></defs><title>Asset 56</title><g id="Layer_2" data-name="Layer 2"><g id="Layer_1-2" data-name="Layer 1"><path class="cls-1" d="M22.11,25.77A12.91,12.91,0,0,1,9.22,12.88,12.91,12.91,0,0,1,22.11,0,12.89,12.89,0,0,1,35,12.89h0A12.9,12.9,0,0,1,22.11,25.77Zm0-24.36a11.47,11.47,0,1,0,8.11,3.36,11.48,11.48,0,0,0-8.11-3.36Z"/><path class="cls-1" d="M41.84,31.86a.7.7,0,0,1-.71-.7V21.23c0-9.16-8.31-19.82-19-19.82s-19,10.65-19,19.82v9.92a.71.71,0,0,1-1.42,0V21.23C1.67,11.41,10.6,0,22.11,0S42.55,11.42,42.55,21.23v9.93A.7.7,0,0,1,41.84,31.86Z"/><path class="cls-1" d="M4,41.36H.71a.71.71,0,0,1-.5-.21.67.67,0,0,1-.21-.5V32.81a2.37,2.37,0,0,1,4.74,0v7.84A.71.71,0,0,1,4,41.36ZM1.41,39.94H3.33V32.81a1,1,0,0,0-1.92,0Z"/><path class="cls-1" d="M43.5,41.36H40.17a.7.7,0,0,1-.7-.7V32.82a2.37,2.37,0,1,1,4.74,0v7.84a.71.71,0,0,1-.21.5A.7.7,0,0,1,43.5,41.36ZM40.88,40H42.8V32.82a1,1,0,0,0-1.92,0Z"/><path class="cls-1" d="M4,38.18H.71a.7.7,0,0,1-.71-.7.71.71,0,0,1,.71-.71H4a.71.71,0,0,1,.71.71A.7.7,0,0,1,4,38.18Z"/><path class="cls-1" d="M43.5,38.19H40.18a.71.71,0,0,1-.71-.71.7.7,0,0,1,.71-.7H43.5a.7.7,0,0,1,.71.7A.71.71,0,0,1,43.5,38.19Z"/></g></g></svg>