<svg xmlns="http://www.w3.org/2000/svg" viewBox="0 0 45.15 32.44"><defs><style>.cls-1{fill:#d2af66;}</style></defs><title>Asset 57</title><g id="Layer_2" data-name="Layer 2"><g id="Layer_1-2" data-name="Layer 1"><path class="cls-1" d="M23.47,16.92a.71.71,0,0,1-.7-.74,4.86,4.86,0,0,1,3.8-4.4V5a.7.7,0,0,1,.7-.71A.71.71,0,0,1,28,5v7.36a.7.7,0,0,1-.62.7c-.12,0-3,.46-3.18,3.21A.71.71,0,0,1,23.47,16.92Z"/><path class="cls-1" d="M27.27,26.28H13.71a.72.72,0,0,1-.71-.71V22.86a18.11,18.11,0,0,0-.82-5.41l-.39-1.27a9.24,9.24,0,0,1-.41-2.72V12.29a.7.7,0,0,1,.7-.7.7.7,0,0,1,.71.7v1.17a7.77,7.77,0,0,0,.35,2.3L13.53,17a19.2,19.2,0,0,1,.88,5.82v2H26.56V20a.71.71,0,0,1,.19-.48l3.33-3.57a5.09,5.09,0,0,0,1.37-3.47V5.11a1.81,1.81,0,0,0-1.58-1.85A1.73,1.73,0,0,0,28,5a.7.7,0,0,1-.71.7.7.7,0,0,1-.7-.7A3.15,3.15,0,0,1,30,1.85a3.23,3.23,0,0,1,2.87,3.26v7.36a6.46,6.46,0,0,1-1.75,4.43L28,20.27v5.3A.7.7,0,0,1,27.27,26.28Z"/><path class="cls-1" d="M26.8,32.44H14.27a3.79,3.79,0,0,1,0-7.58H26.8a3.79,3.79,0,1,1,0,7.57ZM14.27,26.28a2.38,2.38,0,0,0,0,4.75H26.8a2.38,2.38,0,1,0,0-4.75Z"/><path class="cls-1" d="M25.37,10.76a2.59,2.59,0,0,1-2.6-2.6V3.35a2.61,2.61,0,1,1,5.21,0v4.8A2.61,2.61,0,0,1,25.37,10.76Zm0-8.6a1.2,1.2,0,0,0-1.19,1.2v4.8a1.2,1.2,0,0,0,1.19,1.19,1.2,1.2,0,0,0,1.2-1.19V3.36a1.2,1.2,0,0,0-1.2-1.2Z"/><path class="cls-1" d="M21.58,11.51A2.59,2.59,0,0,1,19,8.91V2.6A2.61,2.61,0,0,1,21.58,0a2.59,2.59,0,0,1,2.6,2.6V8.91a2.59,2.59,0,0,1-2.6,2.6Zm0-10.1a1.21,1.21,0,0,0-1.2,1.19V8.91a1.22,1.22,0,0,0,.35.84,1.19,1.19,0,0,0,.85.35,1.16,1.16,0,0,0,.84-.35,1.21,1.21,0,0,0,.35-.84V2.6a1.2,1.2,0,0,0-1.19-1.19Z"/><path class="cls-1" d="M17.78,10.76A2.58,2.58,0,0,1,15.94,10a2.62,2.62,0,0,1-.76-1.85V3.35a2.6,2.6,0,1,1,5.2,0V8.16A2.6,2.6,0,0,1,17.78,10.76Zm0-8.6a1.2,1.2,0,0,0-1.19,1.19V8.16a1.19,1.19,0,1,0,2.38,0V3.35a1.19,1.19,0,0,0-1.19-1.19Z"/><path class="cls-1" d="M14,10.1a2.61,2.61,0,0,1-2.6-2.6V5a2.61,2.61,0,0,1,5.21,0V7.5A2.61,2.61,0,0,1,14,10.1Zm0-6.28A1.19,1.19,0,0,0,12.79,5V7.5a1.2,1.2,0,0,0,2.39,0V5A1.19,1.19,0,0,0,14,3.82Z"/><path class="cls-1" d="M27.27,13H7a.71.71,0,0,1-.71-.71V6.18A.72.72,0,0,1,7,5.47h5.08a.71.71,0,0,1,0,1.42H7.7v4.69H27.27a.7.7,0,0,1,.71.7A.71.71,0,0,1,27.27,13Z"/><path class="cls-1" d="M38.15,13h-6a.7.7,0,0,1-.7-.71V6.18a.7.7,0,0,1,.2-.49.7.7,0,0,1,.5-.21h6a.7.7,0,0,1,.7.71V12.3a.7.7,0,0,1-.71.7Zm-5.29-1.41h4.59V6.89H32.86Z"/><path class="cls-1" d="M32.15,32.44H9.86a.71.71,0,0,1,0-1.42H32.15a.71.71,0,0,1,0,1.41Z"/><path class="cls-1" d="M44.44,18H38.15a.7.7,0,0,1-.7-.7V1.49a.7.7,0,0,1,.71-.7h6.29a.7.7,0,0,1,.7.71V17.31a.72.72,0,0,1-.71.71ZM38.86,16.6h4.88V2.2H38.86Z"/><path class="cls-1" d="M7,18H.71A.71.71,0,0,1,0,17.3V1.49A.72.72,0,0,1,.71.78H7a.7.7,0,0,1,.7.71V17.3a.67.67,0,0,1-.21.5A.71.71,0,0,1,7,18ZM1.41,16.6H6.29V2.19H1.41Z"/><path class="cls-1" d="M25.63,29.36H15.44a.7.7,0,0,1-.7-.71.7.7,0,0,1,.7-.7H25.63a.7.7,0,0,1,.7.7A.7.7,0,0,1,25.63,29.36Z"/></g></g></svg>