<svg xmlns="http://www.w3.org/2000/svg" viewBox="0 0 27.48 26.82"><defs><style>.cls-1{fill:#d2af66;}</style></defs><title>Asset 60</title><g id="Layer_2" data-name="Layer 2"><g id="Layer_1-2" data-name="Layer 1"><path class="cls-1" d="M13.46,24.48a14.58,14.58,0,0,1-4.26-.72.32.32,0,0,0-.27,0C8,24.37,7.09,25,6.15,25.49A9.39,9.39,0,0,1,2.7,26.76a3.29,3.29,0,0,1-1.25,0,1.06,1.06,0,0,1-.83-1.17,1.28,1.28,0,0,1,.28-.54c.37-.51.76-1,1.12-1.51A7.64,7.64,0,0,0,3.08,21.4a2,2,0,0,0,0-1.29,1.34,1.34,0,0,0-.23-.4,11.67,11.67,0,0,1-2.61-5.1A10.84,10.84,0,0,1,.1,10.76,11.32,11.32,0,0,1,1.16,7.31,11.86,11.86,0,0,1,3.35,4.24,13.74,13.74,0,0,1,8.41,1,14.56,14.56,0,0,1,11.67.14,15.63,15.63,0,0,1,15.35.08,14.94,14.94,0,0,1,20,1.36,13.41,13.41,0,0,1,23.86,4a11.6,11.6,0,0,1,3.33,5.78,10.83,10.83,0,0,1,.26,3.31,11,11,0,0,1-1,3.81,12,12,0,0,1-2.39,3.44A13.6,13.6,0,0,1,20,23.13a14.65,14.65,0,0,1-3.66,1.13A15.88,15.88,0,0,1,13.46,24.48ZM2,25.62l0,.06c.36-.06.72-.1,1.07-.19a8.77,8.77,0,0,0,2.28-.94c1.17-.66,2.32-1.35,3.47-2a.27.27,0,0,1,.19,0,13.92,13.92,0,0,0,5.83.77,13.42,13.42,0,0,0,3.66-.77,12.45,12.45,0,0,0,4.74-3,10.27,10.27,0,0,0,3-6.27,9.59,9.59,0,0,0-.41-4A11,11,0,0,0,21.4,3.47a13.17,13.17,0,0,0-6.22-2.23,13.86,13.86,0,0,0-3.64.09A13.12,13.12,0,0,0,5.61,3.81,11.13,11.13,0,0,0,2.15,8a9.8,9.8,0,0,0-.67,6.57,10.4,10.4,0,0,0,2.37,4.48,2.14,2.14,0,0,1,.49,1,3.71,3.71,0,0,1-.28,2.18,12.77,12.77,0,0,1-1.43,2.48Z"/><path class="cls-1" d="M18.14,17.62c-.37.24-.72.48-1.09.71a11,11,0,0,1-2,.91.59.59,0,0,1-.76-.39.56.56,0,0,1,.4-.72,9,9,0,0,0,2.56-1.32c-.2-.21-.42-.42-.6-.64-.33-.43-.66-.87-1-1.32a.56.56,0,0,1,.2-.82.6.6,0,0,1,.83.24,9.65,9.65,0,0,0,1.47,1.8,7.94,7.94,0,0,0,2-3.25H14.91a.58.58,0,0,1-.63-.55.59.59,0,0,1,.62-.61h3c0-.38,0-.75,0-1.12a.61.61,0,0,1,.59-.65.6.6,0,0,1,.61.65v1.12h2.94a.58.58,0,0,1,.64.65.57.57,0,0,1-.57.51h-.59a.17.17,0,0,0-.21.15,8.9,8.9,0,0,1-1.52,2.95c-.24.3-.51.59-.78.92.28.19.56.4.86.58s.82.47,1.24.68a.61.61,0,0,1,.32.81.61.61,0,0,1-.84.26,12.08,12.08,0,0,1-2.37-1.48Z"/><path class="cls-1" d="M5.35,14c0-.11.09-.27.14-.43l.66-1.84Q7.11,9,8.08,6.29a.6.6,0,0,1,1.16,0l1.87,5.26c.27.77.55,1.54.83,2.31a.6.6,0,0,1-.37.77.61.61,0,0,1-.76-.39c-.23-.63-.46-1.26-.68-1.9a.13.13,0,0,0-.15-.1H7.35a.16.16,0,0,0-.17.12l-.66,1.88A.6.6,0,0,1,5.35,14Zm4.33-2.95-1-2.88-1,2.88Z"/></g></g></svg>