<svg xmlns="http://www.w3.org/2000/svg" viewBox="0 0 294.61 90.04"><defs><style>.cls-1{fill:#d2af66;}.cls-2{fill:#fff;}</style></defs><title>Asset 48</title><g id="Layer_2" data-name="Layer 2"><g id="Layer_1-2" data-name="Layer 1"><path class="cls-1" d="M87.87,17A27.84,27.84,0,0,0,73,2.17,26.81,26.81,0,0,0,68.86.79,28.36,28.36,0,0,0,62.24,0a27.36,27.36,0,0,0-6.63.81,7.32,7.32,0,0,0-.92.24,26,26,0,0,0-3.25,1.12,27.75,27.75,0,0,0-17,25.64V62.46a6.62,6.62,0,0,1-13.23-.22V10.59c0-.18,0-.37,0-.54A10.6,10.6,0,0,0,0,10.59V43.86c0,.38,0,.78,0,1.16s0,.78,0,1.17V61.76c0,.16,0,.32,0,.48s0,.31,0,.47A27.68,27.68,0,0,0,2.17,73,28,28,0,0,0,17,87.87a27.63,27.63,0,0,0,4.18,1.37,0,0,0,0,0,0,0,28.09,28.09,0,0,0,13.23,0l.93-.25A27.79,27.79,0,0,0,55.61,62.24V30.45a1.31,1.31,0,0,0-1.32-1.32h-4a2.58,2.58,0,0,1-1.44-.44l-.2-.13a2.48,2.48,0,0,1-.71-.87,3,3,0,0,1-.22-.72s0-.1,0-.15a2.84,2.84,0,0,1,0-.77v0a2.12,2.12,0,0,1,.16-.56,1,1,0,0,1,.11-.21,0,0,0,0,1,0,0,2.89,2.89,0,0,1,.82-.92l.05,0,6.73-6L60.37,14l.12-.11a3.37,3.37,0,0,1,.38-.28,2.26,2.26,0,0,1,.74-.3.78.78,0,0,1,.22,0,1.84,1.84,0,0,1,.41,0,2.71,2.71,0,0,1,1,.21,3.88,3.88,0,0,1,.45.24l.28.21.12.11,4.74,4.22,6.78,6.05.09.07a3.31,3.31,0,0,1,.5.49,2,2,0,0,1,.25.37,1.91,1.91,0,0,1,.23.6.35.35,0,0,1,0,.17.76.76,0,0,1,0,.16c0,.12,0,.22,0,.34a1.94,1.94,0,0,1,0,.49,2,2,0,0,1,0,.24,1.13,1.13,0,0,1-.08.24,2.56,2.56,0,0,1-.11.24,2.63,2.63,0,0,1-2.36,1.44h-4a1.31,1.31,0,0,0-1.32,1.32V53.07a1.33,1.33,0,0,0,1.32,1.33l.24,0a.68.68,0,0,0,.32-.11A11.31,11.31,0,0,0,72,53.84c.29-.1.57-.21.85-.33l.83-.36.81-.38c.28-.13.54-.28.81-.41l.78-.44c.65-.37,1.28-.77,1.91-1.19s1.2-.88,1.78-1.34,1.14-1,1.67-1.47,1.06-1.05,1.55-1.6c.2-.23.4-.45.59-.68s.51-.61.74-.92c.12-.16.25-.32.35-.48s.36-.48.53-.73A27.37,27.37,0,0,0,89,35.37h0A27.92,27.92,0,0,0,87.87,17"/><path class="cls-2" d="M111.23,49.78V29.65a.46.46,0,0,1,.51-.52h3.39a.46.46,0,0,1,.51.52V46.28h17.84a.46.46,0,0,1,.52.51v3a.46.46,0,0,1-.52.52H111.74a.45.45,0,0,1-.51-.52"/><path class="cls-2" d="M135.81,49.78V35.94a.46.46,0,0,1,.52-.52h3.41a.46.46,0,0,1,.52.52v1.57h6.8q3.93,0,7.8,0a.46.46,0,0,1,.52.51v3a.46.46,0,0,1-.52.51h-14.6v4.75h17.83a.45.45,0,0,1,.52.51v3a.46.46,0,0,1-.52.52H136.33a.46.46,0,0,1-.52-.52m0-17.14v-3a.46.46,0,0,1,.52-.52h21.76a.46.46,0,0,1,.52.52v3a.46.46,0,0,1-.52.52H136.33a.46.46,0,0,1-.52-.52"/><path class="cls-2" d="M170.76,49.94l-10.34-20.2a.43.43,0,0,1-.06-.24c0-.25.15-.37.46-.37h4.05a.61.61,0,0,1,.6.37l8.59,16.78,8.59-16.78a.61.61,0,0,1,.6-.37h4.08c.3,0,.46.12.46.37a.43.43,0,0,1-.06.24l-10.38,20.2a.62.62,0,0,1-.6.36h-5.38a.63.63,0,0,1-.61-.36"/><path class="cls-2" d="M189.54,49.78V35.94a.45.45,0,0,1,.51-.52h3.42a.45.45,0,0,1,.51.52v1.57h6.81q3.93,0,7.8,0a.45.45,0,0,1,.51.51v3a.45.45,0,0,1-.51.51H194v4.75h17.84a.46.46,0,0,1,.52.51v3a.46.46,0,0,1-.52.52H190.05a.45.45,0,0,1-.51-.52m0-17.14v-3a.46.46,0,0,1,.51-.52h21.77a.47.47,0,0,1,.52.52v3a.47.47,0,0,1-.52.52H190.05a.46.46,0,0,1-.51-.52"/><path class="cls-2" d="M214.15,49.78V29.65a.46.46,0,0,1,.52-.52h3.38a.47.47,0,0,1,.52.52V46.28H236.4a.45.45,0,0,1,.52.51v3a.46.46,0,0,1-.52.52H214.67a.46.46,0,0,1-.52-.52"/><path class="cls-2" d="M246.11,49.32a3.58,3.58,0,0,1-1.33-2.89V29.65a.46.46,0,0,1,.51-.52h3.42a.47.47,0,0,1,.52.52v15a1.94,1.94,0,0,0,.39,1.27,1.51,1.51,0,0,0,1,.4H263a2.94,2.94,0,0,0,.91-.11.87.87,0,0,0,.48-.51,3.5,3.5,0,0,0,.18-1.32V29.65a.46.46,0,0,1,.52-.52h3.2a.47.47,0,0,1,.52.52V46.31a3.57,3.57,0,0,1-1.24,3.08,5,5,0,0,1-3,.91H249.19a4.91,4.91,0,0,1-3.08-1"/><path class="cls-2" d="M274.5,50.3h-3.38a.45.45,0,0,1-.52-.51V35.94a.46.46,0,0,1,.52-.52h3.38a.45.45,0,0,1,.51.52v4h13.37a1.52,1.52,0,0,0,1.44-.67,3.41,3.41,0,0,0,.37-1.69V35.39c0-1.49-.52-2.23-1.69-2.23H271.12a.46.46,0,0,1-.52-.52v-3a.46.46,0,0,1,.52-.52H289.8a5.36,5.36,0,0,1,2.25.52,4.63,4.63,0,0,1,1.82,1.49,4,4,0,0,1,.74,2.26v5.47a5.2,5.2,0,0,1-.7,2.57,4.91,4.91,0,0,1-1.78,1.81,4.82,4.82,0,0,1-2.54.67H275v5.87a.45.45,0,0,1-.51.51"/><path class="cls-2" d="M113.79,63.59a3.34,3.34,0,0,1-1.48-.32,2.67,2.67,0,0,1-1.08-.9l.44-.4a2.57,2.57,0,0,0,2.14,1,2.26,2.26,0,0,0,1.44-.43,1.4,1.4,0,0,0,.55-1.16,1.5,1.5,0,0,0-.1-.53.6.6,0,0,0-.13-.21l-.17-.18a1,1,0,0,0-.22-.15L115,60.2l-.28-.12a2,2,0,0,0-.28-.1l-.32-.11-.32-.1a8.87,8.87,0,0,1-.85-.32,4.28,4.28,0,0,1-.67-.38,1.56,1.56,0,0,1-.52-.6,1.87,1.87,0,0,1-.17-.82,1.79,1.79,0,0,1,.71-1.52,2.87,2.87,0,0,1,1.79-.54,3.48,3.48,0,0,1,2.16.73l-.34.49a3,3,0,0,0-1.83-.64,2.25,2.25,0,0,0-1.33.37,1.24,1.24,0,0,0-.52,1.08,1.14,1.14,0,0,0,.12.52,1.32,1.32,0,0,0,.24.37,1.84,1.84,0,0,0,.45.29c.2.09.37.17.49.21l.63.21.16.06.64.22a4.51,4.51,0,0,1,.57.27,2.13,2.13,0,0,1,.53.38,2,2,0,0,1,.31.51,1.68,1.68,0,0,1,.14.72,1.94,1.94,0,0,1-.77,1.63,3,3,0,0,1-1.9.58"/><path class="cls-2" d="M123.83,55.74a2.47,2.47,0,0,1,1.87.65,2.32,2.32,0,0,1,.65,1.72,2.35,2.35,0,0,1-.67,1.81,2.71,2.71,0,0,1-1.91.62h-1.66v3.05h-.65V55.74Zm0,4.19c1.27,0,1.9-.61,1.9-1.83a1.69,1.69,0,0,0-.48-1.3,2,2,0,0,0-1.42-.46h-1.67v3.59Z"/><path class="cls-2" d="M134.45,63.59a3.4,3.4,0,0,1-2.63-1.09,4.71,4.71,0,0,1,0-5.8,3.39,3.39,0,0,1,2.63-1.11,3.32,3.32,0,0,1,2.6,1.11,4.2,4.2,0,0,1,1,2.9,4.14,4.14,0,0,1-1,2.89,3.31,3.31,0,0,1-2.6,1.1m0-.62a2.69,2.69,0,0,0,2.11-.91,3.54,3.54,0,0,0,.81-2.46,3.59,3.59,0,0,0-.81-2.47,2.7,2.7,0,0,0-2.11-.92,2.73,2.73,0,0,0-2.14.92,3.59,3.59,0,0,0-.82,2.47,3.55,3.55,0,0,0,.82,2.46,2.72,2.72,0,0,0,2.14.91"/><path class="cls-2" d="M147.33,63.59l-2.16-3.39H143.8v3.39h-.65V55.74h2.44a2.47,2.47,0,0,1,1.79.6A2.19,2.19,0,0,1,148,58a2.07,2.07,0,0,1-.55,1.49,2.4,2.4,0,0,1-1.54.68l2.26,3.41Zm-3.53-7.25v3.28h1.63a2.11,2.11,0,0,0,1.42-.42,1.55,1.55,0,0,0,.48-1.22,1.53,1.53,0,0,0-.47-1.21,1.93,1.93,0,0,0-1.36-.43Z"/><polygon class="cls-2" points="157.82 55.74 157.82 56.34 155.36 56.34 155.36 63.59 154.71 63.59 154.71 56.34 152.25 56.34 152.25 55.74 157.82 55.74"/><path class="cls-2" d="M164.49,63.58a3.39,3.39,0,0,1-1.49-.33,2.59,2.59,0,0,1-1.08-.9l.45-.4a2.54,2.54,0,0,0,2.14,1,2.2,2.2,0,0,0,1.43-.44,1.39,1.39,0,0,0,.56-1.15,1.36,1.36,0,0,0,0-.29,1.67,1.67,0,0,0-.08-.24.6.6,0,0,0-.13-.21l-.16-.18a1.13,1.13,0,0,0-.23-.15l-.23-.13-.27-.12-.28-.1-.33-.11-.32-.1c-.35-.12-.63-.22-.85-.32a4.28,4.28,0,0,1-.67-.38,1.58,1.58,0,0,1-.52-.6,1.86,1.86,0,0,1-.16-.81,1.81,1.81,0,0,1,.7-1.53,3,3,0,0,1,1.79-.53,3.53,3.53,0,0,1,2.17.73l-.35.49a3,3,0,0,0-1.83-.64,2.2,2.2,0,0,0-1.33.37,1.27,1.27,0,0,0-.52,1.08,1.1,1.1,0,0,0,.12.51,1.2,1.2,0,0,0,.25.37,1.51,1.51,0,0,0,.44.29l.5.22.62.21.16.05.65.22.56.27a2,2,0,0,1,.53.38,1.87,1.87,0,0,1,.32.51,1.81,1.81,0,0,1,.14.72,1.91,1.91,0,0,1-.78,1.62,3,3,0,0,1-1.89.59"/><polygon class="cls-1" points="90.04 10.21 90.04 9.45 93.17 9.45 93.17 10.21 92 10.21 92 13.24 91.23 13.24 91.23 10.21 90.04 10.21"/><path class="cls-1" d="M96.85,9.45h.67v3.79h-.75V10.92l-.83,1.39a.39.39,0,0,1-.38.2.39.39,0,0,1-.37-.2l-.85-1.43v2.36H93.6V9.45h.67l1.29,2.13Z"/></g></g></svg>