<svg xmlns="http://www.w3.org/2000/svg" viewBox="0 0 45.72 37.92"><defs><style>.cls-1{fill:#d2af66;}</style></defs><title>Asset 55</title><g id="Layer_2" data-name="Layer 2"><g id="Layer_1-2" data-name="Layer 1"><path class="cls-1" d="M4.93,37.92l-1.22,0A3.83,3.83,0,0,1,.53,36a3.76,3.76,0,0,1-.11-3.66A13.61,13.61,0,0,1,4.86,27.6c2.85-2,2.91-11.28,2.69-14.7A.71.71,0,1,1,9,12.81C9,14.15,9.67,26,5.66,28.75a12.39,12.39,0,0,0-4,4.24,2.35,2.35,0,0,0,.07,2.31,2.43,2.43,0,0,0,2,1.19c5.1.16,14.1-.6,17-7.44a107.58,107.58,0,0,1,8.6-16,4.17,4.17,0,0,0-.23-4.85A15.53,15.53,0,0,0,19,2.16a.72.72,0,0,1-.6-.8.71.71,0,0,1,.8-.6,16.93,16.93,0,0,1,11,6.56,5.58,5.58,0,0,1,.3,6.49A106.24,106.24,0,0,0,22,29.6C19.06,36.68,10.51,37.92,4.93,37.92Z"/><path class="cls-1" d="M2.67,34.63l-1.21,0a4.27,4.27,0,0,1-.93-.14A.71.71,0,0,1,0,33.72a3.86,3.86,0,0,1,.4-1.37A13.61,13.61,0,0,1,4.86,27.6c2.85-2,2.91-11.28,2.69-14.7a.71.71,0,0,1,.59-.74C18.22,10.49,18.37,1.82,18.37,1.46a.74.74,0,0,1,.25-.54.71.71,0,0,1,.56-.16,16.39,16.39,0,0,1,9.57,4.9.67.67,0,0,1,.18.3,5.53,5.53,0,0,1-.67,4.56,104.89,104.89,0,0,0-8.48,15.79C16.8,33.4,8.26,34.63,2.67,34.63ZM1.58,33.2c5.12.15,14-.63,16.9-7.43a106.35,106.35,0,0,1,8.6-16,4.15,4.15,0,0,0,.54-3.23,15.09,15.09,0,0,0-7.9-4.24C19.43,4.69,17.82,11.67,9,13.44c.13,2.82.31,12.78-3.33,15.31a12.39,12.39,0,0,0-4,4.24A2,2,0,0,0,1.58,33.2Z"/><path class="cls-1" d="M8.26,13.56a.71.71,0,0,1-.66-.44l-.95-2.41a1.47,1.47,0,0,1,.06-1.23,1.5,1.5,0,0,1,1-.77C9.8,8.14,14.81,6.29,15,1.43A1.5,1.5,0,0,1,17,.07l2.33.71a.71.71,0,0,1,.47.88.7.7,0,0,1-.89.47l-2.32-.71a.09.09,0,0,0-.08,0,.06.06,0,0,0,0,.06c-.25,5.8-6,7.93-8.41,8.58l0,0a.08.08,0,0,0,0,.08l1,2.4a.7.7,0,0,1-.4.91A.56.56,0,0,1,8.26,13.56Z"/><path class="cls-1" d="M7.94,24a1.65,1.65,0,0,1-.35,0,.71.71,0,0,1,.17-1.4s2.24.2,5.5-2.07a.69.69,0,0,1,1,.17.71.71,0,0,1-.17,1A11.14,11.14,0,0,1,7.94,24Z"/><path class="cls-1" d="M8.24,19.4a.7.7,0,0,1-.71-.7A.71.71,0,0,1,8.24,18a9,9,0,0,0,5-1.81.71.71,0,0,1,1,.11.7.7,0,0,1-.1,1A10.27,10.27,0,0,1,8.24,19.4Z"/><path class="cls-1" d="M35,37.9H3.73a.71.71,0,0,1-.7-.71.7.7,0,0,1,.7-.7H35a.7.7,0,0,1,.71.7A.71.71,0,0,1,35,37.9Z"/><path class="cls-1" d="M39.47,22.87H29.4a.71.71,0,0,1,0-1.42H39.47a.71.71,0,0,1,0,1.42Z"/><path class="cls-1" d="M42.58,18.86H32.51a.7.7,0,0,1-.7-.71.7.7,0,0,1,.7-.7H42.58a.7.7,0,0,1,.7.7A.7.7,0,0,1,42.58,18.86Z"/><path class="cls-1" d="M44.6,14.85H34.54a.71.71,0,0,1-.71-.71.7.7,0,0,1,.71-.7H44.6a.7.7,0,0,1,.71.7A.71.71,0,0,1,44.6,14.85Z"/><path class="cls-1" d="M45,10.84H34.94a.7.7,0,0,1-.7-.7.7.7,0,0,1,.7-.71H45a.71.71,0,0,1,.71.71A.7.7,0,0,1,45,10.84Z"/><path class="cls-1" d="M43.25,6.83H33.19a.7.7,0,0,1-.71-.7.71.71,0,0,1,.71-.71H43.25a.71.71,0,0,1,.71.71A.7.7,0,0,1,43.25,6.83Z"/></g></g></svg>