<svg xmlns="http://www.w3.org/2000/svg" viewBox="0 0 24.16 30.52"><defs><style>.cls-1{fill:#d2af66;}</style></defs><title>Asset 61</title><g id="Layer_2" data-name="Layer 2"><g id="Layer_1-2" data-name="Layer 1"><path class="cls-1" d="M16.54,26.59a4.51,4.51,0,0,1-8.95,0h-6A1.52,1.52,0,0,1,.23,24.26C1,22.9,1.76,21.55,2.52,20.2a.63.63,0,0,0,.08-.29c0-2.66,0-5.33,0-8A8.46,8.46,0,0,1,3.66,7.77,9.9,9.9,0,0,1,8,3.55,14.26,14.26,0,0,1,9.37,3c.1,0,.1-.11.1-.18A2.81,2.81,0,0,1,9.71,1.5,2.63,2.63,0,0,1,12.28,0a2.52,2.52,0,0,1,2.26,1.92,4.91,4.91,0,0,1,.08.86c0,.11,0,.17.14.2A8.9,8.9,0,0,1,19,5.68a9,9,0,0,1,2.39,4.72,7.73,7.73,0,0,1,.12,1.36c0,2.7,0,5.41,0,8.11a.61.61,0,0,0,.08.3c.7,1.25,1.41,2.49,2.12,3.73l.23.37a1.44,1.44,0,0,1,0,1.51,1.47,1.47,0,0,1-1.33.81c-.8,0-1.6,0-2.4,0h-3.7Zm-4.48-1.18H22.61a.38.38,0,0,0,.37-.24.37.37,0,0,0-.09-.41,2.18,2.18,0,0,1-.22-.31c-.75-1.31-1.5-2.61-2.24-3.92a.94.94,0,0,1-.12-.47c0-2.76,0-5.53,0-8.29a6.28,6.28,0,0,0-.18-1.56A8.35,8.35,0,0,0,18,6.32a8.09,8.09,0,0,0-6.62-2.58A7.33,7.33,0,0,0,9,4.32,8.62,8.62,0,0,0,4.89,7.94a7.47,7.47,0,0,0-1.11,3.94c0,2.7,0,5.41,0,8.11a1.08,1.08,0,0,1-.14.53L1.22,24.79a.42.42,0,0,0-.05.39.38.38,0,0,0,.41.23ZM8.75,26.6a3.38,3.38,0,0,0,3.85,2.73A3.27,3.27,0,0,0,14.77,28a2.89,2.89,0,0,0,.59-1.39ZM13.46,2.66a1.41,1.41,0,1,0-2.82,0A7.43,7.43,0,0,1,13.46,2.66Z"/></g></g></svg>