<svg xmlns="http://www.w3.org/2000/svg" viewBox="0 0 29.77 29.82"><defs><style>.cls-1{fill:#d2af66;}</style></defs><title>Asset 59</title><g id="Layer_2" data-name="Layer 2"><g id="Layer_1-2" data-name="Layer 1"><path class="cls-1" d="M15.76,0a18.57,18.57,0,0,1,3.45,1.34A7.84,7.84,0,0,1,20.4,13.57l-.71.66.44.2A1.18,1.18,0,0,1,20.88,16a1.24,1.24,0,0,1-1.54.63,19.33,19.33,0,0,0-3.41-.71A12.4,12.4,0,0,0,4,21.94a14.7,14.7,0,0,0-1.49,3.5c-.47,1.42,0,2,1.52,2H7.4c.9,0,1.38.42,1.38,1.15s-.49,1.14-1.39,1.15c-1.25,0-2.51,0-3.77,0a3.49,3.49,0,0,1-3.5-2.74,2.68,2.68,0,0,0-.12-.3V25.69a.59.59,0,0,0,.1-.16A14.94,14.94,0,0,1,8.59,14.89c.48-.24,1-.42,1.51-.64-.29-.28-.53-.5-.76-.74A7.82,7.82,0,0,1,10.63,1.3,18.08,18.08,0,0,1,14,0Zm-.9,13.5A5.63,5.63,0,0,0,20.51,8,5.62,5.62,0,0,0,9.28,7.83,5.61,5.61,0,0,0,14.86,13.5Z"/><path class="cls-1" d="M11.34,24a1.72,1.72,0,0,0,1.79.92,17.62,17.62,0,0,1,2.18,0,1.18,1.18,0,0,1,1.31,1.19,1.16,1.16,0,0,1-1.28,1.13c-1.19,0-2.39,0-3.57,0a1.69,1.69,0,0,1-1-.44c-.66-.59-1.26-1.24-1.87-1.88a1.13,1.13,0,0,1,0-1.75c.63-.68,1.26-1.36,1.95-2a1.84,1.84,0,0,1,1.08-.36c2.27,0,4.54,0,6.81,0a.66.66,0,0,0,.75-.53,2.91,2.91,0,0,1,2.94-2c1.21,0,2.42,0,3.64,0a3,3,0,0,1,2.85,1.88,9.12,9.12,0,0,1,0,7.79,2.85,2.85,0,0,1-2.48,1.82,30.21,30.21,0,0,1-4.36,0,2.88,2.88,0,0,1-2.62-2.09A11.61,11.61,0,0,1,19,26.26a1.13,1.13,0,0,1,2.13-.68,9.63,9.63,0,0,1,.4,1.18.91.91,0,0,0,1,.72c1.13,0,2.26.05,3.38,0a1.25,1.25,0,0,0,.91-.58,6.6,6.6,0,0,0,0-5.74,1.26,1.26,0,0,0-.9-.59c-1.12-.07-2.25,0-3.37,0a.87.87,0,0,0-1,.71.14.14,0,0,0,0,.06c-.61,2-.63,1.77-2.55,1.77s-3.89,0-5.83,0C12.06,23.06,12.06,23.06,11.34,24Z"/><path class="cls-1" d="M26.22,24A1.14,1.14,0,1,1,24,23.93a1.14,1.14,0,0,1,2.27.05Z"/></g></g></svg>